<mxfile host="app.diagrams.net" modified="2023-04-21T11:27:19.353Z" agent="Mozilla/5.0 (Windows NT 10.0; Win64; x64) AppleWebKit/537.36 (KHTML, like Gecko) Chrome/112.0.0.0 Safari/537.36 Edg/112.0.1722.48" etag="9z7VwyddaWlq5uZN_oJ-" version="21.2.1" type="github">
  <diagram name="第 1 页" id="WnC-DdulwKgJSyGNHlEh">
    <mxGraphModel dx="748" dy="662" grid="1" gridSize="10" guides="1" tooltips="1" connect="1" arrows="1" fold="1" page="1" pageScale="1" pageWidth="827" pageHeight="1169" math="0" shadow="0">
      <root>
        <mxCell id="0" />
        <mxCell id="1" parent="0" />
        <mxCell id="oSs8_F6n8OspjOoBLgS3-100" value="内存选件内存布局图" visible="0" parent="0" />
        <mxCell id="oSs8_F6n8OspjOoBLgS3-101" value="" style="group" vertex="1" connectable="0" parent="oSs8_F6n8OspjOoBLgS3-100">
          <mxGeometry x="40" y="240" width="760" height="40" as="geometry" />
        </mxCell>
        <mxCell id="oSs8_F6n8OspjOoBLgS3-102" value="" style="rounded=0;whiteSpace=wrap;html=1;" vertex="1" parent="oSs8_F6n8OspjOoBLgS3-101">
          <mxGeometry width="760" height="40" as="geometry" />
        </mxCell>
        <mxCell id="oSs8_F6n8OspjOoBLgS3-103" value="kernel text" style="rounded=0;whiteSpace=wrap;html=1;fillColor=#b1ddf0;strokeColor=#10739e;" vertex="1" parent="oSs8_F6n8OspjOoBLgS3-101">
          <mxGeometry width="110" height="40" as="geometry" />
        </mxCell>
        <mxCell id="oSs8_F6n8OspjOoBLgS3-104" value=".data" style="rounded=0;whiteSpace=wrap;html=1;fillColor=#cce5ff;strokeColor=#36393d;" vertex="1" parent="oSs8_F6n8OspjOoBLgS3-101">
          <mxGeometry x="110" width="50" height="40" as="geometry" />
        </mxCell>
        <mxCell id="oSs8_F6n8OspjOoBLgS3-105" value="heap" style="rounded=0;whiteSpace=wrap;html=1;fillColor=#cce5ff;strokeColor=#36393d;" vertex="1" parent="oSs8_F6n8OspjOoBLgS3-101">
          <mxGeometry x="260" width="80" height="40" as="geometry" />
        </mxCell>
        <mxCell id="oSs8_F6n8OspjOoBLgS3-106" value="stack" style="rounded=0;whiteSpace=wrap;html=1;fillColor=#cce5ff;strokeColor=#36393d;" vertex="1" parent="oSs8_F6n8OspjOoBLgS3-101">
          <mxGeometry x="210" width="50" height="40" as="geometry" />
        </mxCell>
        <mxCell id="oSs8_F6n8OspjOoBLgS3-107" value=".bss" style="rounded=0;whiteSpace=wrap;html=1;fillColor=#cce5ff;strokeColor=#36393d;" vertex="1" parent="oSs8_F6n8OspjOoBLgS3-101">
          <mxGeometry x="160" width="50" height="40" as="geometry" />
        </mxCell>
        <mxCell id="oSs8_F6n8OspjOoBLgS3-108" value="App2&lt;br&gt;(text,data)" style="rounded=0;whiteSpace=wrap;html=1;fillColor=#cce5ff;strokeColor=#36393d;" vertex="1" parent="oSs8_F6n8OspjOoBLgS3-101">
          <mxGeometry x="480" width="80" height="40" as="geometry" />
        </mxCell>
        <mxCell id="oSs8_F6n8OspjOoBLgS3-109" style="rounded=0;orthogonalLoop=1;jettySize=auto;html=1;exitX=0;exitY=1;exitDx=0;exitDy=0;" edge="1" parent="oSs8_F6n8OspjOoBLgS3-101" source="oSs8_F6n8OspjOoBLgS3-110">
          <mxGeometry relative="1" as="geometry">
            <mxPoint x="220" y="160" as="targetPoint" />
          </mxGeometry>
        </mxCell>
        <mxCell id="oSs8_F6n8OspjOoBLgS3-110" value="patol zone" style="rounded=0;whiteSpace=wrap;html=1;fillColor=#ffff88;strokeColor=#36393d;" vertex="1" parent="oSs8_F6n8OspjOoBLgS3-101">
          <mxGeometry x="590" width="150" height="40" as="geometry" />
        </mxCell>
        <mxCell id="oSs8_F6n8OspjOoBLgS3-111" value="App1&lt;br&gt;(text,data)" style="rounded=0;whiteSpace=wrap;html=1;fillColor=#cce5ff;strokeColor=#36393d;" vertex="1" parent="oSs8_F6n8OspjOoBLgS3-101">
          <mxGeometry x="380" width="80" height="40" as="geometry" />
        </mxCell>
        <mxCell id="oSs8_F6n8OspjOoBLgS3-112" value="" style="group" vertex="1" connectable="0" parent="oSs8_F6n8OspjOoBLgS3-100">
          <mxGeometry x="260" y="400" width="540" height="40" as="geometry" />
        </mxCell>
        <mxCell id="oSs8_F6n8OspjOoBLgS3-113" value="" style="group" vertex="1" connectable="0" parent="oSs8_F6n8OspjOoBLgS3-112">
          <mxGeometry width="270" height="40" as="geometry" />
        </mxCell>
        <mxCell id="oSs8_F6n8OspjOoBLgS3-114" value="ZONE info" style="rounded=0;whiteSpace=wrap;html=1;fillColor=#cce5ff;strokeColor=#36393d;" vertex="1" parent="oSs8_F6n8OspjOoBLgS3-113">
          <mxGeometry x="46.95652173913044" width="70.43478260869566" height="40" as="geometry" />
        </mxCell>
        <mxCell id="oSs8_F6n8OspjOoBLgS3-115" value="Task stack" style="rounded=0;whiteSpace=wrap;html=1;fillColor=#cce5ff;strokeColor=#36393d;" vertex="1" parent="oSs8_F6n8OspjOoBLgS3-113">
          <mxGeometry x="117.39" width="72.61" height="40" as="geometry" />
        </mxCell>
        <mxCell id="oSs8_F6n8OspjOoBLgS3-116" value="数据备份区" style="rounded=0;whiteSpace=wrap;html=1;fillColor=#cce5ff;strokeColor=#36393d;" vertex="1" parent="oSs8_F6n8OspjOoBLgS3-113">
          <mxGeometry x="190" width="80" height="40" as="geometry" />
        </mxCell>
        <mxCell id="oSs8_F6n8OspjOoBLgS3-117" value="IPI" style="rounded=0;whiteSpace=wrap;html=1;fillColor=#cce5ff;strokeColor=#36393d;" vertex="1" parent="oSs8_F6n8OspjOoBLgS3-113">
          <mxGeometry width="46.95652173913044" height="40" as="geometry" />
        </mxCell>
        <mxCell id="oSs8_F6n8OspjOoBLgS3-118" value="" style="group" vertex="1" connectable="0" parent="oSs8_F6n8OspjOoBLgS3-112">
          <mxGeometry x="270" width="270" height="40" as="geometry" />
        </mxCell>
        <mxCell id="oSs8_F6n8OspjOoBLgS3-119" value="ZONE info" style="rounded=0;whiteSpace=wrap;html=1;" vertex="1" parent="oSs8_F6n8OspjOoBLgS3-118">
          <mxGeometry x="46.95652173913044" width="70.43478260869566" height="40" as="geometry" />
        </mxCell>
        <mxCell id="oSs8_F6n8OspjOoBLgS3-120" value="Task stack" style="rounded=0;whiteSpace=wrap;html=1;" vertex="1" parent="oSs8_F6n8OspjOoBLgS3-118">
          <mxGeometry x="117.39" width="72.61" height="40" as="geometry" />
        </mxCell>
        <mxCell id="oSs8_F6n8OspjOoBLgS3-121" value="数据备份区" style="rounded=0;whiteSpace=wrap;html=1;fillColor=#d5e8d4;strokeColor=#82b366;" vertex="1" parent="oSs8_F6n8OspjOoBLgS3-118">
          <mxGeometry x="190" width="80" height="40" as="geometry" />
        </mxCell>
        <mxCell id="oSs8_F6n8OspjOoBLgS3-122" value="IPI" style="rounded=0;whiteSpace=wrap;html=1;" vertex="1" parent="oSs8_F6n8OspjOoBLgS3-118">
          <mxGeometry width="46.95652173913044" height="40" as="geometry" />
        </mxCell>
        <mxCell id="oSs8_F6n8OspjOoBLgS3-279" value="IPI" style="rounded=0;whiteSpace=wrap;html=1;fillColor=#d5e8d4;strokeColor=#82b366;" vertex="1" parent="oSs8_F6n8OspjOoBLgS3-118">
          <mxGeometry width="46.95652173913044" height="40" as="geometry" />
        </mxCell>
        <mxCell id="oSs8_F6n8OspjOoBLgS3-280" value="ZONE info" style="rounded=0;whiteSpace=wrap;html=1;fillColor=#d5e8d4;strokeColor=#82b366;" vertex="1" parent="oSs8_F6n8OspjOoBLgS3-118">
          <mxGeometry x="46.956521739130494" width="70.43478260869566" height="40" as="geometry" />
        </mxCell>
        <mxCell id="oSs8_F6n8OspjOoBLgS3-281" value="Task stack" style="rounded=0;whiteSpace=wrap;html=1;fillColor=#d5e8d4;strokeColor=#82b366;" vertex="1" parent="oSs8_F6n8OspjOoBLgS3-118">
          <mxGeometry x="117.38999999999999" width="72.61" height="40" as="geometry" />
        </mxCell>
        <mxCell id="oSs8_F6n8OspjOoBLgS3-123" style="rounded=0;orthogonalLoop=1;jettySize=auto;html=1;exitX=1;exitY=1;exitDx=0;exitDy=0;entryX=1;entryY=0;entryDx=0;entryDy=0;" edge="1" parent="oSs8_F6n8OspjOoBLgS3-100" source="oSs8_F6n8OspjOoBLgS3-110" target="oSs8_F6n8OspjOoBLgS3-121">
          <mxGeometry relative="1" as="geometry" />
        </mxCell>
        <mxCell id="oSs8_F6n8OspjOoBLgS3-124" value="" style="endArrow=classic;html=1;rounded=0;entryX=1;entryY=0;entryDx=0;entryDy=0;strokeWidth=3;" edge="1" parent="oSs8_F6n8OspjOoBLgS3-100" target="oSs8_F6n8OspjOoBLgS3-102">
          <mxGeometry width="50" height="50" relative="1" as="geometry">
            <mxPoint x="800" y="160" as="sourcePoint" />
            <mxPoint x="380" y="420" as="targetPoint" />
          </mxGeometry>
        </mxCell>
        <mxCell id="oSs8_F6n8OspjOoBLgS3-125" value="" style="endArrow=classic;html=1;rounded=0;entryX=1;entryY=0;entryDx=0;entryDy=0;strokeWidth=3;" edge="1" parent="oSs8_F6n8OspjOoBLgS3-100">
          <mxGeometry width="50" height="50" relative="1" as="geometry">
            <mxPoint x="40" y="160" as="sourcePoint" />
            <mxPoint x="40" y="240" as="targetPoint" />
          </mxGeometry>
        </mxCell>
        <mxCell id="oSs8_F6n8OspjOoBLgS3-126" value="&lt;font style=&quot;font-size: 20px;&quot;&gt;物理内存&lt;/font&gt;" style="endArrow=none;dashed=1;html=1;rounded=0;strokeColor=#000000;" edge="1" parent="oSs8_F6n8OspjOoBLgS3-100">
          <mxGeometry width="50" height="50" relative="1" as="geometry">
            <mxPoint x="50" y="190" as="sourcePoint" />
            <mxPoint x="800" y="190" as="targetPoint" />
          </mxGeometry>
        </mxCell>
        <mxCell id="oSs8_F6n8OspjOoBLgS3-127" value="" style="endArrow=classic;html=1;rounded=0;entryX=1;entryY=0;entryDx=0;entryDy=0;strokeWidth=3;" edge="1" parent="oSs8_F6n8OspjOoBLgS3-100">
          <mxGeometry width="50" height="50" relative="1" as="geometry">
            <mxPoint x="150" y="350" as="sourcePoint" />
            <mxPoint x="150" y="280" as="targetPoint" />
          </mxGeometry>
        </mxCell>
        <mxCell id="oSs8_F6n8OspjOoBLgS3-128" value="" style="endArrow=classic;html=1;rounded=0;entryX=1;entryY=0;entryDx=0;entryDy=0;strokeWidth=2;" edge="1" parent="oSs8_F6n8OspjOoBLgS3-100">
          <mxGeometry width="50" height="50" relative="1" as="geometry">
            <mxPoint x="800" y="500" as="sourcePoint" />
            <mxPoint x="800" y="440" as="targetPoint" />
            <Array as="points">
              <mxPoint x="800" y="470" />
              <mxPoint x="800" y="450" />
            </Array>
          </mxGeometry>
        </mxCell>
        <mxCell id="oSs8_F6n8OspjOoBLgS3-129" value="" style="endArrow=classic;html=1;rounded=0;entryX=0;entryY=1;entryDx=0;entryDy=0;strokeWidth=2;" edge="1" parent="oSs8_F6n8OspjOoBLgS3-100" target="oSs8_F6n8OspjOoBLgS3-117">
          <mxGeometry width="50" height="50" relative="1" as="geometry">
            <mxPoint x="260" y="500" as="sourcePoint" />
            <mxPoint x="250" y="585" as="targetPoint" />
          </mxGeometry>
        </mxCell>
        <mxCell id="oSs8_F6n8OspjOoBLgS3-130" value="" style="endArrow=classic;html=1;rounded=0;strokeWidth=3;" edge="1" parent="oSs8_F6n8OspjOoBLgS3-100">
          <mxGeometry width="50" height="50" relative="1" as="geometry">
            <mxPoint x="600" y="350" as="sourcePoint" />
            <mxPoint x="600" y="280" as="targetPoint" />
          </mxGeometry>
        </mxCell>
        <mxCell id="oSs8_F6n8OspjOoBLgS3-131" value="" style="endArrow=classic;html=1;rounded=0;strokeWidth=3;" edge="1" parent="oSs8_F6n8OspjOoBLgS3-100">
          <mxGeometry width="50" height="50" relative="1" as="geometry">
            <mxPoint x="40" y="350" as="sourcePoint" />
            <mxPoint x="40" y="280" as="targetPoint" />
          </mxGeometry>
        </mxCell>
        <mxCell id="oSs8_F6n8OspjOoBLgS3-132" value="&lt;font style=&quot;font-size: 20px;&quot;&gt;巡检范围&lt;/font&gt;" style="endArrow=none;dashed=1;html=1;rounded=0;" edge="1" parent="oSs8_F6n8OspjOoBLgS3-100">
          <mxGeometry x="0.0357" width="50" height="50" relative="1" as="geometry">
            <mxPoint x="150" y="320" as="sourcePoint" />
            <mxPoint x="600" y="320" as="targetPoint" />
            <mxPoint as="offset" />
          </mxGeometry>
        </mxCell>
        <mxCell id="oSs8_F6n8OspjOoBLgS3-133" value="" style="endArrow=classic;html=1;rounded=0;entryX=1;entryY=0;entryDx=0;entryDy=0;strokeWidth=2;" edge="1" parent="oSs8_F6n8OspjOoBLgS3-100">
          <mxGeometry width="50" height="50" relative="1" as="geometry">
            <mxPoint x="529.5" y="500" as="sourcePoint" />
            <mxPoint x="529.5" y="440" as="targetPoint" />
            <Array as="points">
              <mxPoint x="529.5" y="470" />
              <mxPoint x="529.5" y="450" />
            </Array>
          </mxGeometry>
        </mxCell>
        <mxCell id="oSs8_F6n8OspjOoBLgS3-134" value="" style="endArrow=classic;startArrow=classic;html=1;rounded=0;" edge="1" parent="oSs8_F6n8OspjOoBLgS3-100">
          <mxGeometry width="50" height="50" relative="1" as="geometry">
            <mxPoint x="260" y="480" as="sourcePoint" />
            <mxPoint x="530" y="480" as="targetPoint" />
          </mxGeometry>
        </mxCell>
        <mxCell id="oSs8_F6n8OspjOoBLgS3-135" value="&lt;font style=&quot;font-size: 15px;&quot;&gt;巡检任务1使用内存区&lt;/font&gt;" style="edgeLabel;html=1;align=center;verticalAlign=middle;resizable=0;points=[];" vertex="1" connectable="0" parent="oSs8_F6n8OspjOoBLgS3-134">
          <mxGeometry x="-0.1228" relative="1" as="geometry">
            <mxPoint as="offset" />
          </mxGeometry>
        </mxCell>
        <mxCell id="oSs8_F6n8OspjOoBLgS3-136" value="" style="endArrow=classic;startArrow=classic;html=1;rounded=0;" edge="1" parent="oSs8_F6n8OspjOoBLgS3-100">
          <mxGeometry width="50" height="50" relative="1" as="geometry">
            <mxPoint x="530" y="480" as="sourcePoint" />
            <mxPoint x="800" y="480" as="targetPoint" />
            <Array as="points">
              <mxPoint x="670" y="480" />
            </Array>
          </mxGeometry>
        </mxCell>
        <mxCell id="oSs8_F6n8OspjOoBLgS3-137" value="&lt;font style=&quot;font-size: 15px;&quot;&gt;巡检任务2使用内存区&lt;/font&gt;" style="edgeLabel;html=1;align=center;verticalAlign=middle;resizable=0;points=[];" vertex="1" connectable="0" parent="oSs8_F6n8OspjOoBLgS3-136">
          <mxGeometry x="0.0995" relative="1" as="geometry">
            <mxPoint as="offset" />
          </mxGeometry>
        </mxCell>
        <mxCell id="oSs8_F6n8OspjOoBLgS3-138" value="&lt;font style=&quot;font-size: 20px;&quot;&gt;CRC校验&lt;/font&gt;" style="endArrow=none;dashed=1;html=1;dashPattern=1 3;strokeWidth=2;rounded=0;" edge="1" parent="oSs8_F6n8OspjOoBLgS3-100">
          <mxGeometry x="0.0909" width="50" height="50" relative="1" as="geometry">
            <mxPoint x="40" y="320" as="sourcePoint" />
            <mxPoint x="150" y="320" as="targetPoint" />
            <Array as="points" />
            <mxPoint as="offset" />
          </mxGeometry>
        </mxCell>
        <mxCell id="oSs8_F6n8OspjOoBLgS3-206" value="内存隔离设计流程图" visible="0" parent="0" />
        <mxCell id="oSs8_F6n8OspjOoBLgS3-215" style="edgeStyle=orthogonalEdgeStyle;rounded=0;orthogonalLoop=1;jettySize=auto;html=1;exitX=0.5;exitY=1;exitDx=0;exitDy=0;entryX=0.5;entryY=0;entryDx=0;entryDy=0;" edge="1" parent="oSs8_F6n8OspjOoBLgS3-206" source="oSs8_F6n8OspjOoBLgS3-216" target="oSs8_F6n8OspjOoBLgS3-218">
          <mxGeometry relative="1" as="geometry" />
        </mxCell>
        <mxCell id="oSs8_F6n8OspjOoBLgS3-216" value="设置内存配额M" style="rounded=0;whiteSpace=wrap;html=1;" vertex="1" parent="oSs8_F6n8OspjOoBLgS3-206">
          <mxGeometry x="200" y="40" width="120" height="40" as="geometry" />
        </mxCell>
        <mxCell id="oSs8_F6n8OspjOoBLgS3-217" style="edgeStyle=orthogonalEdgeStyle;rounded=0;orthogonalLoop=1;jettySize=auto;html=1;exitX=0.5;exitY=1;exitDx=0;exitDy=0;entryX=0.5;entryY=0;entryDx=0;entryDy=0;" edge="1" parent="oSs8_F6n8OspjOoBLgS3-206" source="oSs8_F6n8OspjOoBLgS3-218" target="oSs8_F6n8OspjOoBLgS3-220">
          <mxGeometry relative="1" as="geometry" />
        </mxCell>
        <mxCell id="oSs8_F6n8OspjOoBLgS3-218" value="创建新程序" style="rounded=0;whiteSpace=wrap;html=1;" vertex="1" parent="oSs8_F6n8OspjOoBLgS3-206">
          <mxGeometry x="200" y="120" width="120" height="40" as="geometry" />
        </mxCell>
        <mxCell id="oSs8_F6n8OspjOoBLgS3-219" style="edgeStyle=orthogonalEdgeStyle;rounded=0;orthogonalLoop=1;jettySize=auto;html=1;exitX=0.5;exitY=1;exitDx=0;exitDy=0;entryX=0.5;entryY=0;entryDx=0;entryDy=0;entryPerimeter=0;" edge="1" parent="oSs8_F6n8OspjOoBLgS3-206" source="oSs8_F6n8OspjOoBLgS3-220" target="oSs8_F6n8OspjOoBLgS3-223">
          <mxGeometry relative="1" as="geometry" />
        </mxCell>
        <mxCell id="oSs8_F6n8OspjOoBLgS3-220" value="计算已用内存加预分配内存总和N" style="rounded=0;whiteSpace=wrap;html=1;" vertex="1" parent="oSs8_F6n8OspjOoBLgS3-206">
          <mxGeometry x="200" y="200" width="120" height="40" as="geometry" />
        </mxCell>
        <mxCell id="oSs8_F6n8OspjOoBLgS3-221" style="edgeStyle=orthogonalEdgeStyle;rounded=0;orthogonalLoop=1;jettySize=auto;html=1;exitX=0.5;exitY=1;exitDx=0;exitDy=0;exitPerimeter=0;entryX=0.5;entryY=0;entryDx=0;entryDy=0;" edge="1" parent="oSs8_F6n8OspjOoBLgS3-206" source="oSs8_F6n8OspjOoBLgS3-223" target="oSs8_F6n8OspjOoBLgS3-225">
          <mxGeometry relative="1" as="geometry" />
        </mxCell>
        <mxCell id="oSs8_F6n8OspjOoBLgS3-222" value="否" style="edgeStyle=orthogonalEdgeStyle;rounded=0;orthogonalLoop=1;jettySize=auto;html=1;exitX=1;exitY=0.5;exitDx=0;exitDy=0;exitPerimeter=0;entryX=0.5;entryY=0;entryDx=0;entryDy=0;" edge="1" parent="oSs8_F6n8OspjOoBLgS3-206" source="oSs8_F6n8OspjOoBLgS3-223" target="oSs8_F6n8OspjOoBLgS3-226">
          <mxGeometry x="-0.2821" relative="1" as="geometry">
            <mxPoint as="offset" />
          </mxGeometry>
        </mxCell>
        <mxCell id="oSs8_F6n8OspjOoBLgS3-223" value="N &amp;lt;= M" style="strokeWidth=2;html=1;shape=mxgraph.flowchart.decision;whiteSpace=wrap;" vertex="1" parent="oSs8_F6n8OspjOoBLgS3-206">
          <mxGeometry x="200" y="280" width="120" height="50" as="geometry" />
        </mxCell>
        <mxCell id="oSs8_F6n8OspjOoBLgS3-224" value="是" style="edgeStyle=orthogonalEdgeStyle;rounded=0;orthogonalLoop=1;jettySize=auto;html=1;" edge="1" parent="oSs8_F6n8OspjOoBLgS3-206" source="oSs8_F6n8OspjOoBLgS3-225" target="oSs8_F6n8OspjOoBLgS3-223">
          <mxGeometry relative="1" as="geometry" />
        </mxCell>
        <mxCell id="oSs8_F6n8OspjOoBLgS3-225" value="按预分配内存创建新程序" style="rounded=0;whiteSpace=wrap;html=1;" vertex="1" parent="oSs8_F6n8OspjOoBLgS3-206">
          <mxGeometry x="200" y="400" width="120" height="40" as="geometry" />
        </mxCell>
        <mxCell id="oSs8_F6n8OspjOoBLgS3-226" value="终止新程序，报错警告" style="rounded=0;whiteSpace=wrap;html=1;" vertex="1" parent="oSs8_F6n8OspjOoBLgS3-206">
          <mxGeometry x="360" y="400" width="120" height="40" as="geometry" />
        </mxCell>
        <mxCell id="oSs8_F6n8OspjOoBLgS3-139" value="内存巡检流程图" visible="0" parent="0" />
        <mxCell id="oSs8_F6n8OspjOoBLgS3-271" style="edgeStyle=orthogonalEdgeStyle;rounded=0;orthogonalLoop=1;jettySize=auto;html=1;exitX=0.5;exitY=1;exitDx=0;exitDy=0;entryX=0.5;entryY=0;entryDx=0;entryDy=0;" edge="1" parent="oSs8_F6n8OspjOoBLgS3-139" source="oSs8_F6n8OspjOoBLgS3-201" target="oSs8_F6n8OspjOoBLgS3-270">
          <mxGeometry relative="1" as="geometry" />
        </mxCell>
        <mxCell id="oSs8_F6n8OspjOoBLgS3-201" value="巡检完成通知其他CPU核讯息" style="rounded=0;whiteSpace=wrap;html=1;" vertex="1" parent="oSs8_F6n8OspjOoBLgS3-139">
          <mxGeometry x="460" y="620" width="120" height="40" as="geometry" />
        </mxCell>
        <mxCell id="oSs8_F6n8OspjOoBLgS3-262" value="Y" style="edgeStyle=orthogonalEdgeStyle;rounded=0;orthogonalLoop=1;jettySize=auto;html=1;exitX=0.5;exitY=1;exitDx=0;exitDy=0;entryX=0.5;entryY=0;entryDx=0;entryDy=0;entryPerimeter=0;" edge="1" parent="oSs8_F6n8OspjOoBLgS3-139" source="oSs8_F6n8OspjOoBLgS3-202" target="oSs8_F6n8OspjOoBLgS3-231">
          <mxGeometry relative="1" as="geometry">
            <mxPoint x="520" y="509" as="targetPoint" />
          </mxGeometry>
        </mxCell>
        <mxCell id="oSs8_F6n8OspjOoBLgS3-202" value="CRC巡检" style="rounded=0;whiteSpace=wrap;html=1;" vertex="1" parent="oSs8_F6n8OspjOoBLgS3-139">
          <mxGeometry x="354" y="429" width="120" height="40" as="geometry" />
        </mxCell>
        <mxCell id="oSs8_F6n8OspjOoBLgS3-256" style="edgeStyle=orthogonalEdgeStyle;rounded=0;orthogonalLoop=1;jettySize=auto;html=1;exitX=1;exitY=0.5;exitDx=0;exitDy=0;entryX=0;entryY=0.5;entryDx=0;entryDy=0;entryPerimeter=0;" edge="1" parent="oSs8_F6n8OspjOoBLgS3-139" source="oSs8_F6n8OspjOoBLgS3-203" target="oSs8_F6n8OspjOoBLgS3-229">
          <mxGeometry relative="1" as="geometry" />
        </mxCell>
        <mxCell id="oSs8_F6n8OspjOoBLgS3-203" value="设置新的内存巡检区" style="rounded=0;whiteSpace=wrap;html=1;" vertex="1" parent="oSs8_F6n8OspjOoBLgS3-139">
          <mxGeometry x="110" y="339" width="160" height="40" as="geometry" />
        </mxCell>
        <mxCell id="oSs8_F6n8OspjOoBLgS3-254" style="edgeStyle=orthogonalEdgeStyle;rounded=0;orthogonalLoop=1;jettySize=auto;html=1;exitX=0.5;exitY=1;exitDx=0;exitDy=0;entryX=0.5;entryY=0;entryDx=0;entryDy=0;entryPerimeter=0;" edge="1" parent="oSs8_F6n8OspjOoBLgS3-139" source="oSs8_F6n8OspjOoBLgS3-204" target="oSs8_F6n8OspjOoBLgS3-228">
          <mxGeometry relative="1" as="geometry">
            <mxPoint x="190" y="219" as="targetPoint" />
          </mxGeometry>
        </mxCell>
        <mxCell id="oSs8_F6n8OspjOoBLgS3-204" value="通知其他cpu核停止运行。并等待其他cpu核停止" style="rounded=0;whiteSpace=wrap;html=1;" vertex="1" parent="oSs8_F6n8OspjOoBLgS3-139">
          <mxGeometry x="110" y="149" width="160" height="40" as="geometry" />
        </mxCell>
        <mxCell id="oSs8_F6n8OspjOoBLgS3-253" style="edgeStyle=orthogonalEdgeStyle;rounded=0;orthogonalLoop=1;jettySize=auto;html=1;exitX=0.5;exitY=1;exitDx=0;exitDy=0;entryX=0.5;entryY=0;entryDx=0;entryDy=0;" edge="1" parent="oSs8_F6n8OspjOoBLgS3-139" source="oSs8_F6n8OspjOoBLgS3-205" target="oSs8_F6n8OspjOoBLgS3-204">
          <mxGeometry relative="1" as="geometry" />
        </mxCell>
        <mxCell id="oSs8_F6n8OspjOoBLgS3-205" value="获取巡检任务互斥锁" style="rounded=0;whiteSpace=wrap;html=1;" vertex="1" parent="oSs8_F6n8OspjOoBLgS3-139">
          <mxGeometry x="110" y="79" width="160" height="40" as="geometry" />
        </mxCell>
        <mxCell id="oSs8_F6n8OspjOoBLgS3-255" value="Y" style="edgeStyle=orthogonalEdgeStyle;rounded=0;orthogonalLoop=1;jettySize=auto;html=1;exitX=0.5;exitY=1;exitDx=0;exitDy=0;exitPerimeter=0;entryX=0.5;entryY=0;entryDx=0;entryDy=0;" edge="1" parent="oSs8_F6n8OspjOoBLgS3-139" source="oSs8_F6n8OspjOoBLgS3-228" target="oSs8_F6n8OspjOoBLgS3-203">
          <mxGeometry relative="1" as="geometry" />
        </mxCell>
        <mxCell id="oSs8_F6n8OspjOoBLgS3-257" value="N" style="edgeStyle=orthogonalEdgeStyle;rounded=0;orthogonalLoop=1;jettySize=auto;html=1;exitX=1;exitY=0.5;exitDx=0;exitDy=0;exitPerimeter=0;" edge="1" parent="oSs8_F6n8OspjOoBLgS3-139" source="oSs8_F6n8OspjOoBLgS3-228" target="oSs8_F6n8OspjOoBLgS3-229">
          <mxGeometry relative="1" as="geometry" />
        </mxCell>
        <mxCell id="oSs8_F6n8OspjOoBLgS3-228" value="本内存区巡检完成？" style="strokeWidth=2;html=1;shape=mxgraph.flowchart.decision;whiteSpace=wrap;" vertex="1" parent="oSs8_F6n8OspjOoBLgS3-139">
          <mxGeometry x="110" y="229" width="160" height="70" as="geometry" />
        </mxCell>
        <mxCell id="oSs8_F6n8OspjOoBLgS3-258" style="edgeStyle=orthogonalEdgeStyle;rounded=0;orthogonalLoop=1;jettySize=auto;html=1;exitX=1;exitY=0.5;exitDx=0;exitDy=0;exitPerimeter=0;" edge="1" parent="oSs8_F6n8OspjOoBLgS3-139" source="oSs8_F6n8OspjOoBLgS3-229" target="oSs8_F6n8OspjOoBLgS3-230">
          <mxGeometry relative="1" as="geometry" />
        </mxCell>
        <mxCell id="oSs8_F6n8OspjOoBLgS3-259" value="Y" style="edgeStyle=orthogonalEdgeStyle;rounded=0;orthogonalLoop=1;jettySize=auto;html=1;exitX=0.5;exitY=1;exitDx=0;exitDy=0;exitPerimeter=0;entryX=0.5;entryY=0;entryDx=0;entryDy=0;" edge="1" parent="oSs8_F6n8OspjOoBLgS3-139" source="oSs8_F6n8OspjOoBLgS3-229" target="oSs8_F6n8OspjOoBLgS3-202">
          <mxGeometry relative="1" as="geometry" />
        </mxCell>
        <mxCell id="oSs8_F6n8OspjOoBLgS3-277" value="N" style="edgeStyle=orthogonalEdgeStyle;rounded=0;orthogonalLoop=1;jettySize=auto;html=1;" edge="1" parent="oSs8_F6n8OspjOoBLgS3-139" source="oSs8_F6n8OspjOoBLgS3-229" target="oSs8_F6n8OspjOoBLgS3-230">
          <mxGeometry relative="1" as="geometry" />
        </mxCell>
        <mxCell id="oSs8_F6n8OspjOoBLgS3-229" value="巡检类型是CRC？" style="strokeWidth=2;html=1;shape=mxgraph.flowchart.decision;whiteSpace=wrap;" vertex="1" parent="oSs8_F6n8OspjOoBLgS3-139">
          <mxGeometry x="336" y="329" width="156" height="60" as="geometry" />
        </mxCell>
        <mxCell id="oSs8_F6n8OspjOoBLgS3-260" value="Y" style="edgeStyle=orthogonalEdgeStyle;rounded=0;orthogonalLoop=1;jettySize=auto;html=1;exitX=0.5;exitY=1;exitDx=0;exitDy=0;exitPerimeter=0;entryX=0.5;entryY=0;entryDx=0;entryDy=0;" edge="1" parent="oSs8_F6n8OspjOoBLgS3-139" source="oSs8_F6n8OspjOoBLgS3-230" target="oSs8_F6n8OspjOoBLgS3-233">
          <mxGeometry relative="1" as="geometry" />
        </mxCell>
        <mxCell id="oSs8_F6n8OspjOoBLgS3-264" style="edgeStyle=orthogonalEdgeStyle;rounded=0;orthogonalLoop=1;jettySize=auto;html=1;exitX=1;exitY=0.5;exitDx=0;exitDy=0;exitPerimeter=0;entryX=0.5;entryY=0;entryDx=0;entryDy=0;" edge="1" parent="oSs8_F6n8OspjOoBLgS3-139" source="oSs8_F6n8OspjOoBLgS3-230" target="oSs8_F6n8OspjOoBLgS3-232">
          <mxGeometry relative="1" as="geometry" />
        </mxCell>
        <mxCell id="oSs8_F6n8OspjOoBLgS3-278" value="N" style="edgeLabel;html=1;align=center;verticalAlign=middle;resizable=0;points=[];" vertex="1" connectable="0" parent="oSs8_F6n8OspjOoBLgS3-264">
          <mxGeometry x="-0.656" y="1" relative="1" as="geometry">
            <mxPoint as="offset" />
          </mxGeometry>
        </mxCell>
        <mxCell id="oSs8_F6n8OspjOoBLgS3-230" value="巡检类型是write/read巡检？" style="strokeWidth=2;html=1;shape=mxgraph.flowchart.decision;whiteSpace=wrap;" vertex="1" parent="oSs8_F6n8OspjOoBLgS3-139">
          <mxGeometry x="540" y="329" width="180" height="60" as="geometry" />
        </mxCell>
        <mxCell id="oSs8_F6n8OspjOoBLgS3-265" value="N" style="edgeStyle=orthogonalEdgeStyle;rounded=0;orthogonalLoop=1;jettySize=auto;html=1;exitX=1;exitY=0.5;exitDx=0;exitDy=0;exitPerimeter=0;entryX=0;entryY=0.5;entryDx=0;entryDy=0;" edge="1" parent="oSs8_F6n8OspjOoBLgS3-139" source="oSs8_F6n8OspjOoBLgS3-231" target="oSs8_F6n8OspjOoBLgS3-232">
          <mxGeometry relative="1" as="geometry" />
        </mxCell>
        <mxCell id="oSs8_F6n8OspjOoBLgS3-266" value="Y" style="edgeStyle=orthogonalEdgeStyle;rounded=0;orthogonalLoop=1;jettySize=auto;html=1;exitX=0.5;exitY=1;exitDx=0;exitDy=0;exitPerimeter=0;entryX=0.5;entryY=0;entryDx=0;entryDy=0;" edge="1" parent="oSs8_F6n8OspjOoBLgS3-139" source="oSs8_F6n8OspjOoBLgS3-231" target="oSs8_F6n8OspjOoBLgS3-201">
          <mxGeometry relative="1" as="geometry" />
        </mxCell>
        <mxCell id="oSs8_F6n8OspjOoBLgS3-231" value="巡检结果ok？" style="strokeWidth=2;html=1;shape=mxgraph.flowchart.decision;whiteSpace=wrap;" vertex="1" parent="oSs8_F6n8OspjOoBLgS3-139">
          <mxGeometry x="428" y="529" width="184" height="60" as="geometry" />
        </mxCell>
        <mxCell id="oSs8_F6n8OspjOoBLgS3-232" value="回调故障处理" style="rounded=0;whiteSpace=wrap;html=1;" vertex="1" parent="oSs8_F6n8OspjOoBLgS3-139">
          <mxGeometry x="690" y="543.5" width="110" height="31" as="geometry" />
        </mxCell>
        <mxCell id="oSs8_F6n8OspjOoBLgS3-263" value="Y" style="edgeStyle=orthogonalEdgeStyle;rounded=0;orthogonalLoop=1;jettySize=auto;html=1;exitX=0.5;exitY=1;exitDx=0;exitDy=0;entryX=0.5;entryY=0;entryDx=0;entryDy=0;entryPerimeter=0;" edge="1" parent="oSs8_F6n8OspjOoBLgS3-139" source="oSs8_F6n8OspjOoBLgS3-233" target="oSs8_F6n8OspjOoBLgS3-231">
          <mxGeometry relative="1" as="geometry" />
        </mxCell>
        <mxCell id="oSs8_F6n8OspjOoBLgS3-233" value="write/read巡检" style="rounded=0;whiteSpace=wrap;html=1;" vertex="1" parent="oSs8_F6n8OspjOoBLgS3-139">
          <mxGeometry x="570" y="429" width="120" height="40" as="geometry" />
        </mxCell>
        <mxCell id="oSs8_F6n8OspjOoBLgS3-276" style="edgeStyle=orthogonalEdgeStyle;rounded=0;orthogonalLoop=1;jettySize=auto;html=1;exitX=0;exitY=0.5;exitDx=0;exitDy=0;entryX=0.5;entryY=0;entryDx=0;entryDy=0;" edge="1" parent="oSs8_F6n8OspjOoBLgS3-139" source="oSs8_F6n8OspjOoBLgS3-269" target="oSs8_F6n8OspjOoBLgS3-205">
          <mxGeometry relative="1" as="geometry">
            <Array as="points">
              <mxPoint x="90" y="780" />
              <mxPoint x="90" y="59" />
              <mxPoint x="190" y="59" />
            </Array>
          </mxGeometry>
        </mxCell>
        <mxCell id="oSs8_F6n8OspjOoBLgS3-269" value="休眠" style="rounded=0;whiteSpace=wrap;html=1;" vertex="1" parent="oSs8_F6n8OspjOoBLgS3-139">
          <mxGeometry x="460" y="760" width="120" height="40" as="geometry" />
        </mxCell>
        <mxCell id="oSs8_F6n8OspjOoBLgS3-272" style="edgeStyle=orthogonalEdgeStyle;rounded=0;orthogonalLoop=1;jettySize=auto;html=1;exitX=0.5;exitY=1;exitDx=0;exitDy=0;entryX=0.5;entryY=0;entryDx=0;entryDy=0;" edge="1" parent="oSs8_F6n8OspjOoBLgS3-139" source="oSs8_F6n8OspjOoBLgS3-270" target="oSs8_F6n8OspjOoBLgS3-269">
          <mxGeometry relative="1" as="geometry" />
        </mxCell>
        <mxCell id="oSs8_F6n8OspjOoBLgS3-270" value="释放信号量" style="rounded=0;whiteSpace=wrap;html=1;" vertex="1" parent="oSs8_F6n8OspjOoBLgS3-139">
          <mxGeometry x="460" y="690" width="120" height="40" as="geometry" />
        </mxCell>
        <mxCell id="oSs8_F6n8OspjOoBLgS3-303" value="未命名图层" visible="0" parent="0" />
        <mxCell id="oSs8_F6n8OspjOoBLgS3-304" value="" style="group" vertex="1" connectable="0" parent="oSs8_F6n8OspjOoBLgS3-303">
          <mxGeometry x="50" y="30" width="540" height="40" as="geometry" />
        </mxCell>
        <mxCell id="oSs8_F6n8OspjOoBLgS3-305" value="" style="group" vertex="1" connectable="0" parent="oSs8_F6n8OspjOoBLgS3-304">
          <mxGeometry width="270" height="40" as="geometry" />
        </mxCell>
        <mxCell id="oSs8_F6n8OspjOoBLgS3-306" value="ZONE info" style="rounded=0;whiteSpace=wrap;html=1;fillColor=#cce5ff;strokeColor=#36393d;" vertex="1" parent="oSs8_F6n8OspjOoBLgS3-305">
          <mxGeometry x="46.95652173913044" width="70.43478260869566" height="40" as="geometry" />
        </mxCell>
        <mxCell id="oSs8_F6n8OspjOoBLgS3-307" value="Task stack" style="rounded=0;whiteSpace=wrap;html=1;fillColor=#cce5ff;strokeColor=#36393d;" vertex="1" parent="oSs8_F6n8OspjOoBLgS3-305">
          <mxGeometry x="117.39" width="72.61" height="40" as="geometry" />
        </mxCell>
        <mxCell id="oSs8_F6n8OspjOoBLgS3-308" value="数据备份区" style="rounded=0;whiteSpace=wrap;html=1;fillColor=#cce5ff;strokeColor=#36393d;" vertex="1" parent="oSs8_F6n8OspjOoBLgS3-305">
          <mxGeometry x="190" width="80" height="40" as="geometry" />
        </mxCell>
        <mxCell id="oSs8_F6n8OspjOoBLgS3-309" value="IPI" style="rounded=0;whiteSpace=wrap;html=1;fillColor=#cce5ff;strokeColor=#36393d;" vertex="1" parent="oSs8_F6n8OspjOoBLgS3-305">
          <mxGeometry width="46.95652173913044" height="40" as="geometry" />
        </mxCell>
        <mxCell id="oSs8_F6n8OspjOoBLgS3-310" value="" style="group" vertex="1" connectable="0" parent="oSs8_F6n8OspjOoBLgS3-304">
          <mxGeometry x="270" width="270" height="40" as="geometry" />
        </mxCell>
        <mxCell id="oSs8_F6n8OspjOoBLgS3-311" value="ZONE info" style="rounded=0;whiteSpace=wrap;html=1;" vertex="1" parent="oSs8_F6n8OspjOoBLgS3-310">
          <mxGeometry x="46.95652173913044" width="70.43478260869566" height="40" as="geometry" />
        </mxCell>
        <mxCell id="oSs8_F6n8OspjOoBLgS3-312" value="Task stack" style="rounded=0;whiteSpace=wrap;html=1;" vertex="1" parent="oSs8_F6n8OspjOoBLgS3-310">
          <mxGeometry x="117.39" width="72.61" height="40" as="geometry" />
        </mxCell>
        <mxCell id="oSs8_F6n8OspjOoBLgS3-313" value="数据备份区" style="rounded=0;whiteSpace=wrap;html=1;fillColor=#d5e8d4;strokeColor=#82b366;" vertex="1" parent="oSs8_F6n8OspjOoBLgS3-310">
          <mxGeometry x="190" width="80" height="40" as="geometry" />
        </mxCell>
        <mxCell id="oSs8_F6n8OspjOoBLgS3-314" value="IPI" style="rounded=0;whiteSpace=wrap;html=1;" vertex="1" parent="oSs8_F6n8OspjOoBLgS3-310">
          <mxGeometry width="46.95652173913044" height="40" as="geometry" />
        </mxCell>
        <mxCell id="oSs8_F6n8OspjOoBLgS3-315" value="IPI" style="rounded=0;whiteSpace=wrap;html=1;fillColor=#d5e8d4;strokeColor=#82b366;" vertex="1" parent="oSs8_F6n8OspjOoBLgS3-310">
          <mxGeometry width="46.95652173913044" height="40" as="geometry" />
        </mxCell>
        <mxCell id="oSs8_F6n8OspjOoBLgS3-316" value="ZONE info" style="rounded=0;whiteSpace=wrap;html=1;fillColor=#d5e8d4;strokeColor=#82b366;" vertex="1" parent="oSs8_F6n8OspjOoBLgS3-310">
          <mxGeometry x="46.956521739130494" width="70.43478260869566" height="40" as="geometry" />
        </mxCell>
        <mxCell id="oSs8_F6n8OspjOoBLgS3-317" value="Task stack" style="rounded=0;whiteSpace=wrap;html=1;fillColor=#d5e8d4;strokeColor=#82b366;" vertex="1" parent="oSs8_F6n8OspjOoBLgS3-310">
          <mxGeometry x="117.38999999999999" width="72.61" height="40" as="geometry" />
        </mxCell>
        <mxCell id="oSs8_F6n8OspjOoBLgS3-318" value="" style="endArrow=classic;html=1;rounded=0;entryX=1;entryY=0;entryDx=0;entryDy=0;strokeWidth=2;" edge="1" parent="oSs8_F6n8OspjOoBLgS3-303">
          <mxGeometry width="50" height="50" relative="1" as="geometry">
            <mxPoint x="590" y="130" as="sourcePoint" />
            <mxPoint x="590" y="70" as="targetPoint" />
            <Array as="points">
              <mxPoint x="590" y="100" />
              <mxPoint x="590" y="80" />
            </Array>
          </mxGeometry>
        </mxCell>
        <mxCell id="oSs8_F6n8OspjOoBLgS3-319" value="" style="endArrow=classic;html=1;rounded=0;entryX=0;entryY=1;entryDx=0;entryDy=0;strokeWidth=2;" edge="1" parent="oSs8_F6n8OspjOoBLgS3-303" target="oSs8_F6n8OspjOoBLgS3-309">
          <mxGeometry width="50" height="50" relative="1" as="geometry">
            <mxPoint x="50" y="130" as="sourcePoint" />
            <mxPoint x="40" y="215" as="targetPoint" />
          </mxGeometry>
        </mxCell>
        <mxCell id="oSs8_F6n8OspjOoBLgS3-320" value="" style="endArrow=classic;html=1;rounded=0;entryX=1;entryY=0;entryDx=0;entryDy=0;strokeWidth=2;" edge="1" parent="oSs8_F6n8OspjOoBLgS3-303">
          <mxGeometry width="50" height="50" relative="1" as="geometry">
            <mxPoint x="319.5" y="130" as="sourcePoint" />
            <mxPoint x="319.5" y="70" as="targetPoint" />
            <Array as="points">
              <mxPoint x="319.5" y="100" />
              <mxPoint x="319.5" y="80" />
            </Array>
          </mxGeometry>
        </mxCell>
        <mxCell id="oSs8_F6n8OspjOoBLgS3-321" value="" style="endArrow=classic;startArrow=classic;html=1;rounded=0;" edge="1" parent="oSs8_F6n8OspjOoBLgS3-303">
          <mxGeometry width="50" height="50" relative="1" as="geometry">
            <mxPoint x="50" y="110" as="sourcePoint" />
            <mxPoint x="320" y="110" as="targetPoint" />
          </mxGeometry>
        </mxCell>
        <mxCell id="oSs8_F6n8OspjOoBLgS3-322" value="&lt;font style=&quot;font-size: 15px;&quot;&gt;巡检任务1使用内存区&lt;/font&gt;" style="edgeLabel;html=1;align=center;verticalAlign=middle;resizable=0;points=[];" vertex="1" connectable="0" parent="oSs8_F6n8OspjOoBLgS3-321">
          <mxGeometry x="-0.1228" relative="1" as="geometry">
            <mxPoint as="offset" />
          </mxGeometry>
        </mxCell>
        <mxCell id="oSs8_F6n8OspjOoBLgS3-323" value="" style="endArrow=classic;startArrow=classic;html=1;rounded=0;" edge="1" parent="oSs8_F6n8OspjOoBLgS3-303">
          <mxGeometry width="50" height="50" relative="1" as="geometry">
            <mxPoint x="320" y="110" as="sourcePoint" />
            <mxPoint x="590" y="110" as="targetPoint" />
            <Array as="points">
              <mxPoint x="460" y="110" />
            </Array>
          </mxGeometry>
        </mxCell>
        <mxCell id="oSs8_F6n8OspjOoBLgS3-324" value="&lt;font style=&quot;font-size: 15px;&quot;&gt;巡检任务2使用内存区&lt;/font&gt;" style="edgeLabel;html=1;align=center;verticalAlign=middle;resizable=0;points=[];" vertex="1" connectable="0" parent="oSs8_F6n8OspjOoBLgS3-323">
          <mxGeometry x="0.0995" relative="1" as="geometry">
            <mxPoint as="offset" />
          </mxGeometry>
        </mxCell>
        <mxCell id="oSs8_F6n8OspjOoBLgS3-235" value="内存巡检模块关系图" visible="0" parent="0" />
        <mxCell id="oSs8_F6n8OspjOoBLgS3-330" style="edgeStyle=orthogonalEdgeStyle;rounded=0;orthogonalLoop=1;jettySize=auto;html=1;exitX=0.5;exitY=1;exitDx=0;exitDy=0;entryX=0.5;entryY=0;entryDx=0;entryDy=0;" edge="1" parent="oSs8_F6n8OspjOoBLgS3-235" source="oSs8_F6n8OspjOoBLgS3-326" target="oSs8_F6n8OspjOoBLgS3-327">
          <mxGeometry relative="1" as="geometry" />
        </mxCell>
        <mxCell id="oSs8_F6n8OspjOoBLgS3-331" style="edgeStyle=orthogonalEdgeStyle;rounded=0;orthogonalLoop=1;jettySize=auto;html=1;exitX=0.5;exitY=1;exitDx=0;exitDy=0;entryX=0.5;entryY=0;entryDx=0;entryDy=0;" edge="1" parent="oSs8_F6n8OspjOoBLgS3-235" source="oSs8_F6n8OspjOoBLgS3-326" target="oSs8_F6n8OspjOoBLgS3-328">
          <mxGeometry relative="1" as="geometry" />
        </mxCell>
        <mxCell id="oSs8_F6n8OspjOoBLgS3-326" value="巡检任务" style="rounded=0;whiteSpace=wrap;html=1;" vertex="1" parent="oSs8_F6n8OspjOoBLgS3-235">
          <mxGeometry x="240" y="40" width="120" height="40" as="geometry" />
        </mxCell>
        <mxCell id="oSs8_F6n8OspjOoBLgS3-327" value="处理器巡检" style="rounded=0;whiteSpace=wrap;html=1;" vertex="1" parent="oSs8_F6n8OspjOoBLgS3-235">
          <mxGeometry x="140" y="120" width="120" height="40" as="geometry" />
        </mxCell>
        <mxCell id="oSs8_F6n8OspjOoBLgS3-332" style="edgeStyle=orthogonalEdgeStyle;rounded=0;orthogonalLoop=1;jettySize=auto;html=1;exitX=0.5;exitY=1;exitDx=0;exitDy=0;entryX=0.5;entryY=0;entryDx=0;entryDy=0;" edge="1" parent="oSs8_F6n8OspjOoBLgS3-235" source="oSs8_F6n8OspjOoBLgS3-328" target="oSs8_F6n8OspjOoBLgS3-329">
          <mxGeometry relative="1" as="geometry" />
        </mxCell>
        <mxCell id="oSs8_F6n8OspjOoBLgS3-328" value="内存巡检" style="rounded=0;whiteSpace=wrap;html=1;" vertex="1" parent="oSs8_F6n8OspjOoBLgS3-235">
          <mxGeometry x="340" y="120" width="120" height="40" as="geometry" />
        </mxCell>
        <mxCell id="oSs8_F6n8OspjOoBLgS3-329" value="cache操作" style="rounded=0;whiteSpace=wrap;html=1;" vertex="1" parent="oSs8_F6n8OspjOoBLgS3-235">
          <mxGeometry x="340" y="200" width="120" height="40" as="geometry" />
        </mxCell>
        <mxCell id="oSs8_F6n8OspjOoBLgS3-333" value="数据流程监控模块结构设计" visible="0" parent="0" />
        <mxCell id="oSs8_F6n8OspjOoBLgS3-341" value="用户程序" style="rounded=0;whiteSpace=wrap;html=1;" vertex="1" parent="oSs8_F6n8OspjOoBLgS3-333">
          <mxGeometry x="160" y="40" width="240" height="40" as="geometry" />
        </mxCell>
        <mxCell id="oSs8_F6n8OspjOoBLgS3-344" value="Flow_checkpoint_set(......,0)" style="rounded=0;whiteSpace=wrap;html=1;" vertex="1" parent="oSs8_F6n8OspjOoBLgS3-333">
          <mxGeometry x="160" y="120" width="240" height="40" as="geometry" />
        </mxCell>
        <mxCell id="oSs8_F6n8OspjOoBLgS3-347" value="Flow_checkpoint_set(......,n)" style="rounded=0;whiteSpace=wrap;html=1;" vertex="1" parent="oSs8_F6n8OspjOoBLgS3-333">
          <mxGeometry x="160" y="280" width="240" height="40" as="geometry" />
        </mxCell>
        <mxCell id="oSs8_F6n8OspjOoBLgS3-348" value="Flow_checkpoint_set(......,1)" style="rounded=0;whiteSpace=wrap;html=1;" vertex="1" parent="oSs8_F6n8OspjOoBLgS3-333">
          <mxGeometry x="160" y="200" width="240" height="40" as="geometry" />
        </mxCell>
        <mxCell id="oSs8_F6n8OspjOoBLgS3-349" value="用户程序" style="rounded=0;whiteSpace=wrap;html=1;" vertex="1" parent="oSs8_F6n8OspjOoBLgS3-333">
          <mxGeometry x="160" y="360" width="240" height="40" as="geometry" />
        </mxCell>
        <mxCell id="oSs8_F6n8OspjOoBLgS3-350" value="" style="endArrow=none;dashed=1;html=1;dashPattern=1 3;strokeWidth=2;rounded=0;entryX=0.5;entryY=1;entryDx=0;entryDy=0;exitX=0.5;exitY=0;exitDx=0;exitDy=0;" edge="1" parent="oSs8_F6n8OspjOoBLgS3-333" source="oSs8_F6n8OspjOoBLgS3-344" target="oSs8_F6n8OspjOoBLgS3-341">
          <mxGeometry width="50" height="50" relative="1" as="geometry">
            <mxPoint x="460" y="330" as="sourcePoint" />
            <mxPoint x="500" y="300" as="targetPoint" />
          </mxGeometry>
        </mxCell>
        <mxCell id="oSs8_F6n8OspjOoBLgS3-351" value="" style="endArrow=none;dashed=1;html=1;dashPattern=1 3;strokeWidth=2;rounded=0;entryX=0.5;entryY=1;entryDx=0;entryDy=0;exitX=0.5;exitY=0;exitDx=0;exitDy=0;" edge="1" parent="oSs8_F6n8OspjOoBLgS3-333">
          <mxGeometry width="50" height="50" relative="1" as="geometry">
            <mxPoint x="279.5" y="360" as="sourcePoint" />
            <mxPoint x="279.5" y="320" as="targetPoint" />
          </mxGeometry>
        </mxCell>
        <mxCell id="oSs8_F6n8OspjOoBLgS3-352" value="" style="endArrow=none;dashed=1;html=1;dashPattern=1 3;strokeWidth=2;rounded=0;entryX=0.5;entryY=1;entryDx=0;entryDy=0;exitX=0.5;exitY=0;exitDx=0;exitDy=0;" edge="1" parent="oSs8_F6n8OspjOoBLgS3-333">
          <mxGeometry width="50" height="50" relative="1" as="geometry">
            <mxPoint x="279.5" y="280" as="sourcePoint" />
            <mxPoint x="279.5" y="240" as="targetPoint" />
          </mxGeometry>
        </mxCell>
        <mxCell id="oSs8_F6n8OspjOoBLgS3-353" value="" style="endArrow=none;dashed=1;html=1;dashPattern=1 3;strokeWidth=2;rounded=0;entryX=0.5;entryY=1;entryDx=0;entryDy=0;exitX=0.5;exitY=0;exitDx=0;exitDy=0;" edge="1" parent="oSs8_F6n8OspjOoBLgS3-333">
          <mxGeometry width="50" height="50" relative="1" as="geometry">
            <mxPoint x="279.5" y="200" as="sourcePoint" />
            <mxPoint x="279.5" y="160" as="targetPoint" />
          </mxGeometry>
        </mxCell>
        <mxCell id="oSs8_F6n8OspjOoBLgS3-354" value="" style="endArrow=none;html=1;rounded=0;" edge="1" parent="oSs8_F6n8OspjOoBLgS3-333">
          <mxGeometry width="50" height="50" relative="1" as="geometry">
            <mxPoint x="450" y="100" as="sourcePoint" />
            <mxPoint x="520" y="100" as="targetPoint" />
          </mxGeometry>
        </mxCell>
        <mxCell id="oSs8_F6n8OspjOoBLgS3-355" value="" style="endArrow=none;html=1;rounded=0;" edge="1" parent="oSs8_F6n8OspjOoBLgS3-333">
          <mxGeometry width="50" height="50" relative="1" as="geometry">
            <mxPoint x="450" y="350" as="sourcePoint" />
            <mxPoint x="520" y="350" as="targetPoint" />
          </mxGeometry>
        </mxCell>
        <mxCell id="oSs8_F6n8OspjOoBLgS3-356" value="必须保证每个检查点&lt;br&gt;按照执行循序设置ID" style="endArrow=none;dashed=1;html=1;dashPattern=1 3;strokeWidth=2;rounded=0;" edge="1" parent="oSs8_F6n8OspjOoBLgS3-333">
          <mxGeometry width="50" height="50" relative="1" as="geometry">
            <mxPoint x="480" y="350" as="sourcePoint" />
            <mxPoint x="480" y="100" as="targetPoint" />
            <mxPoint as="offset" />
          </mxGeometry>
        </mxCell>
        <mxCell id="oSs8_F6n8OspjOoBLgS3-357" value="任务监控模块结构图" visible="0" parent="0" />
        <mxCell id="oSs8_F6n8OspjOoBLgS3-376" style="edgeStyle=orthogonalEdgeStyle;rounded=0;orthogonalLoop=1;jettySize=auto;html=1;exitX=0.5;exitY=1;exitDx=0;exitDy=0;entryX=0.5;entryY=0;entryDx=0;entryDy=0;" edge="1" parent="oSs8_F6n8OspjOoBLgS3-357" source="oSs8_F6n8OspjOoBLgS3-370" target="oSs8_F6n8OspjOoBLgS3-371">
          <mxGeometry relative="1" as="geometry" />
        </mxCell>
        <mxCell id="oSs8_F6n8OspjOoBLgS3-370" value="监控任务运行" style="rounded=0;whiteSpace=wrap;html=1;" vertex="1" parent="oSs8_F6n8OspjOoBLgS3-357">
          <mxGeometry x="80" y="40" width="160" height="40" as="geometry" />
        </mxCell>
        <mxCell id="oSs8_F6n8OspjOoBLgS3-377" style="edgeStyle=orthogonalEdgeStyle;rounded=0;orthogonalLoop=1;jettySize=auto;html=1;exitX=0.5;exitY=1;exitDx=0;exitDy=0;entryX=0.5;entryY=0;entryDx=0;entryDy=0;entryPerimeter=0;" edge="1" parent="oSs8_F6n8OspjOoBLgS3-357" source="oSs8_F6n8OspjOoBLgS3-371" target="oSs8_F6n8OspjOoBLgS3-372">
          <mxGeometry relative="1" as="geometry" />
        </mxCell>
        <mxCell id="oSs8_F6n8OspjOoBLgS3-371" value="循环检查监控实例" style="rounded=0;whiteSpace=wrap;html=1;" vertex="1" parent="oSs8_F6n8OspjOoBLgS3-357">
          <mxGeometry x="80" y="120" width="160" height="40" as="geometry" />
        </mxCell>
        <mxCell id="oSs8_F6n8OspjOoBLgS3-378" value="Y" style="edgeStyle=orthogonalEdgeStyle;rounded=0;orthogonalLoop=1;jettySize=auto;html=1;exitX=1;exitY=0.5;exitDx=0;exitDy=0;exitPerimeter=0;entryX=0;entryY=0.5;entryDx=0;entryDy=0;" edge="1" parent="oSs8_F6n8OspjOoBLgS3-357" source="oSs8_F6n8OspjOoBLgS3-372" target="oSs8_F6n8OspjOoBLgS3-375">
          <mxGeometry relative="1" as="geometry" />
        </mxCell>
        <mxCell id="oSs8_F6n8OspjOoBLgS3-379" style="edgeStyle=orthogonalEdgeStyle;rounded=0;orthogonalLoop=1;jettySize=auto;html=1;exitX=0.5;exitY=1;exitDx=0;exitDy=0;exitPerimeter=0;entryX=0.5;entryY=0;entryDx=0;entryDy=0;entryPerimeter=0;" edge="1" parent="oSs8_F6n8OspjOoBLgS3-357" source="oSs8_F6n8OspjOoBLgS3-372" target="oSs8_F6n8OspjOoBLgS3-373">
          <mxGeometry relative="1" as="geometry" />
        </mxCell>
        <mxCell id="oSs8_F6n8OspjOoBLgS3-372" value="监控实例是否超时？" style="strokeWidth=2;html=1;shape=mxgraph.flowchart.decision;whiteSpace=wrap;" vertex="1" parent="oSs8_F6n8OspjOoBLgS3-357">
          <mxGeometry x="80" y="200" width="160" height="80" as="geometry" />
        </mxCell>
        <mxCell id="oSs8_F6n8OspjOoBLgS3-380" value="Y" style="edgeStyle=orthogonalEdgeStyle;rounded=0;orthogonalLoop=1;jettySize=auto;html=1;exitX=0.5;exitY=1;exitDx=0;exitDy=0;exitPerimeter=0;entryX=0.5;entryY=0;entryDx=0;entryDy=0;" edge="1" parent="oSs8_F6n8OspjOoBLgS3-357" source="oSs8_F6n8OspjOoBLgS3-373" target="oSs8_F6n8OspjOoBLgS3-374">
          <mxGeometry relative="1" as="geometry" />
        </mxCell>
        <mxCell id="oSs8_F6n8OspjOoBLgS3-384" style="edgeStyle=orthogonalEdgeStyle;rounded=0;orthogonalLoop=1;jettySize=auto;html=1;exitX=0;exitY=0.5;exitDx=0;exitDy=0;exitPerimeter=0;entryX=0;entryY=0.5;entryDx=0;entryDy=0;" edge="1" parent="oSs8_F6n8OspjOoBLgS3-357" source="oSs8_F6n8OspjOoBLgS3-373" target="oSs8_F6n8OspjOoBLgS3-371">
          <mxGeometry relative="1" as="geometry" />
        </mxCell>
        <mxCell id="oSs8_F6n8OspjOoBLgS3-385" value="N" style="edgeLabel;html=1;align=center;verticalAlign=middle;resizable=0;points=[];" vertex="1" connectable="0" parent="oSs8_F6n8OspjOoBLgS3-384">
          <mxGeometry x="0.2156" relative="1" as="geometry">
            <mxPoint as="offset" />
          </mxGeometry>
        </mxCell>
        <mxCell id="oSs8_F6n8OspjOoBLgS3-373" value="本周期所有监控实例&lt;br&gt;都检查完成？" style="strokeWidth=2;html=1;shape=mxgraph.flowchart.decision;whiteSpace=wrap;" vertex="1" parent="oSs8_F6n8OspjOoBLgS3-357">
          <mxGeometry x="83" y="320" width="155" height="80" as="geometry" />
        </mxCell>
        <mxCell id="oSs8_F6n8OspjOoBLgS3-381" style="edgeStyle=orthogonalEdgeStyle;rounded=0;orthogonalLoop=1;jettySize=auto;html=1;exitX=0.5;exitY=1;exitDx=0;exitDy=0;entryX=0.5;entryY=0;entryDx=0;entryDy=0;" edge="1" parent="oSs8_F6n8OspjOoBLgS3-357" source="oSs8_F6n8OspjOoBLgS3-374" target="oSs8_F6n8OspjOoBLgS3-370">
          <mxGeometry relative="1" as="geometry">
            <Array as="points">
              <mxPoint x="160" y="500" />
              <mxPoint x="40" y="500" />
              <mxPoint x="40" y="20" />
              <mxPoint x="160" y="20" />
            </Array>
          </mxGeometry>
        </mxCell>
        <mxCell id="oSs8_F6n8OspjOoBLgS3-374" value="监控任务休眠" style="rounded=0;whiteSpace=wrap;html=1;" vertex="1" parent="oSs8_F6n8OspjOoBLgS3-357">
          <mxGeometry x="82.5" y="440" width="155" height="40" as="geometry" />
        </mxCell>
        <mxCell id="oSs8_F6n8OspjOoBLgS3-382" style="edgeStyle=orthogonalEdgeStyle;rounded=0;orthogonalLoop=1;jettySize=auto;html=1;exitX=0.5;exitY=1;exitDx=0;exitDy=0;" edge="1" parent="oSs8_F6n8OspjOoBLgS3-357" source="oSs8_F6n8OspjOoBLgS3-375">
          <mxGeometry relative="1" as="geometry">
            <mxPoint x="160" y="300" as="targetPoint" />
            <Array as="points">
              <mxPoint x="340" y="300" />
            </Array>
          </mxGeometry>
        </mxCell>
        <mxCell id="oSs8_F6n8OspjOoBLgS3-383" value="N" style="edgeLabel;html=1;align=center;verticalAlign=middle;resizable=0;points=[];" vertex="1" connectable="0" parent="oSs8_F6n8OspjOoBLgS3-382">
          <mxGeometry x="0.0732" y="-2" relative="1" as="geometry">
            <mxPoint as="offset" />
          </mxGeometry>
        </mxCell>
        <mxCell id="oSs8_F6n8OspjOoBLgS3-375" value="超时回调" style="rounded=0;whiteSpace=wrap;html=1;" vertex="1" parent="oSs8_F6n8OspjOoBLgS3-357">
          <mxGeometry x="280" y="220" width="120" height="40" as="geometry" />
        </mxCell>
        <mxCell id="oSs8_F6n8OspjOoBLgS3-414" value="任务上下文" visible="0" parent="0" />
        <mxCell id="oSs8_F6n8OspjOoBLgS3-415" style="edgeStyle=orthogonalEdgeStyle;rounded=0;orthogonalLoop=1;jettySize=auto;html=1;exitX=0.5;exitY=1;exitDx=0;exitDy=0;entryX=0.5;entryY=0;entryDx=0;entryDy=0;" edge="1" parent="oSs8_F6n8OspjOoBLgS3-414" source="oSs8_F6n8OspjOoBLgS3-420" target="oSs8_F6n8OspjOoBLgS3-423">
          <mxGeometry relative="1" as="geometry" />
        </mxCell>
        <mxCell id="oSs8_F6n8OspjOoBLgS3-416" style="edgeStyle=orthogonalEdgeStyle;rounded=0;orthogonalLoop=1;jettySize=auto;html=1;exitX=0.5;exitY=1;exitDx=0;exitDy=0;entryX=0.5;entryY=0;entryDx=0;entryDy=0;" edge="1" parent="oSs8_F6n8OspjOoBLgS3-414" source="oSs8_F6n8OspjOoBLgS3-420" target="oSs8_F6n8OspjOoBLgS3-422">
          <mxGeometry relative="1" as="geometry" />
        </mxCell>
        <mxCell id="oSs8_F6n8OspjOoBLgS3-417" style="edgeStyle=orthogonalEdgeStyle;rounded=0;orthogonalLoop=1;jettySize=auto;html=1;exitX=0.5;exitY=1;exitDx=0;exitDy=0;entryX=0.5;entryY=0;entryDx=0;entryDy=0;" edge="1" parent="oSs8_F6n8OspjOoBLgS3-414" source="oSs8_F6n8OspjOoBLgS3-420" target="oSs8_F6n8OspjOoBLgS3-421">
          <mxGeometry relative="1" as="geometry" />
        </mxCell>
        <mxCell id="oSs8_F6n8OspjOoBLgS3-418" style="edgeStyle=orthogonalEdgeStyle;rounded=0;orthogonalLoop=1;jettySize=auto;html=1;exitX=0.5;exitY=1;exitDx=0;exitDy=0;entryX=0.623;entryY=-0.033;entryDx=0;entryDy=0;entryPerimeter=0;" edge="1" parent="oSs8_F6n8OspjOoBLgS3-414" source="oSs8_F6n8OspjOoBLgS3-420" target="oSs8_F6n8OspjOoBLgS3-424">
          <mxGeometry relative="1" as="geometry" />
        </mxCell>
        <mxCell id="oSs8_F6n8OspjOoBLgS3-419" style="edgeStyle=orthogonalEdgeStyle;rounded=0;orthogonalLoop=1;jettySize=auto;html=1;exitX=0.5;exitY=1;exitDx=0;exitDy=0;entryX=0.569;entryY=-0.033;entryDx=0;entryDy=0;entryPerimeter=0;" edge="1" parent="oSs8_F6n8OspjOoBLgS3-414" source="oSs8_F6n8OspjOoBLgS3-420" target="oSs8_F6n8OspjOoBLgS3-425">
          <mxGeometry relative="1" as="geometry" />
        </mxCell>
        <mxCell id="oSs8_F6n8OspjOoBLgS3-420" value="任务上下文" style="rounded=0;whiteSpace=wrap;html=1;" vertex="1" parent="oSs8_F6n8OspjOoBLgS3-414">
          <mxGeometry x="300" y="50" width="120" height="60" as="geometry" />
        </mxCell>
        <mxCell id="oSs8_F6n8OspjOoBLgS3-421" value="上下文创建" style="rounded=0;whiteSpace=wrap;html=1;" vertex="1" parent="oSs8_F6n8OspjOoBLgS3-414">
          <mxGeometry x="80" y="180" width="80" height="100" as="geometry" />
        </mxCell>
        <mxCell id="oSs8_F6n8OspjOoBLgS3-422" value="设置栈帧寄存器" style="rounded=0;whiteSpace=wrap;html=1;" vertex="1" parent="oSs8_F6n8OspjOoBLgS3-414">
          <mxGeometry x="200" y="180" width="80" height="100" as="geometry" />
        </mxCell>
        <mxCell id="oSs8_F6n8OspjOoBLgS3-423" value="获得栈结束地址" style="rounded=0;whiteSpace=wrap;html=1;" vertex="1" parent="oSs8_F6n8OspjOoBLgS3-414">
          <mxGeometry x="320" y="180" width="80" height="100" as="geometry" />
        </mxCell>
        <mxCell id="oSs8_F6n8OspjOoBLgS3-424" value="线程切换" style="rounded=0;whiteSpace=wrap;html=1;" vertex="1" parent="oSs8_F6n8OspjOoBLgS3-414">
          <mxGeometry x="440" y="180" width="80" height="100" as="geometry" />
        </mxCell>
        <mxCell id="oSs8_F6n8OspjOoBLgS3-425" value="中断退出后线程加载" style="rounded=0;whiteSpace=wrap;html=1;" vertex="1" parent="oSs8_F6n8OspjOoBLgS3-414">
          <mxGeometry x="560" y="180" width="80" height="100" as="geometry" />
        </mxCell>
        <mxCell id="oSs8_F6n8OspjOoBLgS3-386" value="中断异常" style="" visible="0" parent="0" />
        <mxCell id="oSs8_F6n8OspjOoBLgS3-432" style="edgeStyle=orthogonalEdgeStyle;rounded=0;orthogonalLoop=1;jettySize=auto;html=1;exitX=0.5;exitY=1;exitDx=0;exitDy=0;entryX=0.5;entryY=0;entryDx=0;entryDy=0;" edge="1" parent="oSs8_F6n8OspjOoBLgS3-386" source="oSs8_F6n8OspjOoBLgS3-427" target="oSs8_F6n8OspjOoBLgS3-429">
          <mxGeometry relative="1" as="geometry" />
        </mxCell>
        <mxCell id="oSs8_F6n8OspjOoBLgS3-427" value="中断/异常入口" style="rounded=0;whiteSpace=wrap;html=1;" vertex="1" parent="oSs8_F6n8OspjOoBLgS3-386">
          <mxGeometry x="40" y="40" width="200" height="40" as="geometry" />
        </mxCell>
        <mxCell id="oSs8_F6n8OspjOoBLgS3-434" style="edgeStyle=orthogonalEdgeStyle;rounded=0;orthogonalLoop=1;jettySize=auto;html=1;exitX=0.5;exitY=1;exitDx=0;exitDy=0;entryX=0.5;entryY=0;entryDx=0;entryDy=0;" edge="1" parent="oSs8_F6n8OspjOoBLgS3-386" source="oSs8_F6n8OspjOoBLgS3-428" target="oSs8_F6n8OspjOoBLgS3-430">
          <mxGeometry relative="1" as="geometry" />
        </mxCell>
        <mxCell id="oSs8_F6n8OspjOoBLgS3-428" value="获取中断/异常使用的栈地址" style="rounded=0;whiteSpace=wrap;html=1;" vertex="1" parent="oSs8_F6n8OspjOoBLgS3-386">
          <mxGeometry x="40" y="200" width="200" height="40" as="geometry" />
        </mxCell>
        <mxCell id="oSs8_F6n8OspjOoBLgS3-433" style="edgeStyle=orthogonalEdgeStyle;rounded=0;orthogonalLoop=1;jettySize=auto;html=1;exitX=0.5;exitY=1;exitDx=0;exitDy=0;entryX=0.5;entryY=0;entryDx=0;entryDy=0;" edge="1" parent="oSs8_F6n8OspjOoBLgS3-386" source="oSs8_F6n8OspjOoBLgS3-429" target="oSs8_F6n8OspjOoBLgS3-428">
          <mxGeometry relative="1" as="geometry" />
        </mxCell>
        <mxCell id="oSs8_F6n8OspjOoBLgS3-429" value="保存被打断的CPU上下文" style="rounded=0;whiteSpace=wrap;html=1;" vertex="1" parent="oSs8_F6n8OspjOoBLgS3-386">
          <mxGeometry x="40" y="120" width="200" height="40" as="geometry" />
        </mxCell>
        <mxCell id="oSs8_F6n8OspjOoBLgS3-435" style="edgeStyle=orthogonalEdgeStyle;rounded=0;orthogonalLoop=1;jettySize=auto;html=1;exitX=0.5;exitY=1;exitDx=0;exitDy=0;entryX=0.5;entryY=0;entryDx=0;entryDy=0;" edge="1" parent="oSs8_F6n8OspjOoBLgS3-386" source="oSs8_F6n8OspjOoBLgS3-430" target="oSs8_F6n8OspjOoBLgS3-431">
          <mxGeometry relative="1" as="geometry" />
        </mxCell>
        <mxCell id="oSs8_F6n8OspjOoBLgS3-430" value="执行arch层的中断/异常处理" style="rounded=0;whiteSpace=wrap;html=1;" vertex="1" parent="oSs8_F6n8OspjOoBLgS3-386">
          <mxGeometry x="40" y="280" width="200" height="40" as="geometry" />
        </mxCell>
        <mxCell id="oSs8_F6n8OspjOoBLgS3-431" value="处理完成" style="rounded=0;whiteSpace=wrap;html=1;" vertex="1" parent="oSs8_F6n8OspjOoBLgS3-386">
          <mxGeometry x="40" y="360" width="200" height="40" as="geometry" />
        </mxCell>
        <mxCell id="oSs8_F6n8OspjOoBLgS3-436" value="内存操作" style="" visible="0" parent="0" />
        <mxCell id="oSs8_F6n8OspjOoBLgS3-446" style="edgeStyle=orthogonalEdgeStyle;rounded=0;orthogonalLoop=1;jettySize=auto;html=1;exitX=0.5;exitY=1;exitDx=0;exitDy=0;entryX=0.5;entryY=0;entryDx=0;entryDy=0;" edge="1" parent="oSs8_F6n8OspjOoBLgS3-436" source="oSs8_F6n8OspjOoBLgS3-451" target="oSs8_F6n8OspjOoBLgS3-454">
          <mxGeometry relative="1" as="geometry" />
        </mxCell>
        <mxCell id="oSs8_F6n8OspjOoBLgS3-447" style="edgeStyle=orthogonalEdgeStyle;rounded=0;orthogonalLoop=1;jettySize=auto;html=1;exitX=0.5;exitY=1;exitDx=0;exitDy=0;entryX=0.5;entryY=0;entryDx=0;entryDy=0;" edge="1" parent="oSs8_F6n8OspjOoBLgS3-436" source="oSs8_F6n8OspjOoBLgS3-451" target="oSs8_F6n8OspjOoBLgS3-453">
          <mxGeometry relative="1" as="geometry" />
        </mxCell>
        <mxCell id="oSs8_F6n8OspjOoBLgS3-448" style="edgeStyle=orthogonalEdgeStyle;rounded=0;orthogonalLoop=1;jettySize=auto;html=1;exitX=0.5;exitY=1;exitDx=0;exitDy=0;entryX=0.5;entryY=0;entryDx=0;entryDy=0;" edge="1" parent="oSs8_F6n8OspjOoBLgS3-436" source="oSs8_F6n8OspjOoBLgS3-451" target="oSs8_F6n8OspjOoBLgS3-452">
          <mxGeometry relative="1" as="geometry" />
        </mxCell>
        <mxCell id="oSs8_F6n8OspjOoBLgS3-449" style="edgeStyle=orthogonalEdgeStyle;rounded=0;orthogonalLoop=1;jettySize=auto;html=1;exitX=0.5;exitY=1;exitDx=0;exitDy=0;entryX=0.623;entryY=-0.033;entryDx=0;entryDy=0;entryPerimeter=0;" edge="1" parent="oSs8_F6n8OspjOoBLgS3-436" source="oSs8_F6n8OspjOoBLgS3-451" target="oSs8_F6n8OspjOoBLgS3-455">
          <mxGeometry relative="1" as="geometry" />
        </mxCell>
        <mxCell id="oSs8_F6n8OspjOoBLgS3-451" value="内存/IO操作功能" style="rounded=0;whiteSpace=wrap;html=1;" vertex="1" parent="oSs8_F6n8OspjOoBLgS3-436">
          <mxGeometry x="250" y="60" width="120" height="60" as="geometry" />
        </mxCell>
        <mxCell id="oSs8_F6n8OspjOoBLgS3-452" value="8位地址读写" style="rounded=0;whiteSpace=wrap;html=1;" vertex="1" parent="oSs8_F6n8OspjOoBLgS3-436">
          <mxGeometry x="90" y="190" width="80" height="100" as="geometry" />
        </mxCell>
        <mxCell id="oSs8_F6n8OspjOoBLgS3-453" value="16位地址读写" style="rounded=0;whiteSpace=wrap;html=1;" vertex="1" parent="oSs8_F6n8OspjOoBLgS3-436">
          <mxGeometry x="210" y="190" width="80" height="100" as="geometry" />
        </mxCell>
        <mxCell id="oSs8_F6n8OspjOoBLgS3-454" value="32位地址读写" style="rounded=0;whiteSpace=wrap;html=1;" vertex="1" parent="oSs8_F6n8OspjOoBLgS3-436">
          <mxGeometry x="330" y="190" width="80" height="100" as="geometry" />
        </mxCell>
        <mxCell id="oSs8_F6n8OspjOoBLgS3-455" value="64位地址读写" style="rounded=0;whiteSpace=wrap;html=1;" vertex="1" parent="oSs8_F6n8OspjOoBLgS3-436">
          <mxGeometry x="450" y="190" width="80" height="100" as="geometry" />
        </mxCell>
        <mxCell id="oSs8_F6n8OspjOoBLgS3-457" value="原子操作" style="" visible="0" parent="0" />
        <mxCell id="oSs8_F6n8OspjOoBLgS3-458" style="edgeStyle=orthogonalEdgeStyle;rounded=0;orthogonalLoop=1;jettySize=auto;html=1;exitX=0.5;exitY=1;exitDx=0;exitDy=0;entryX=0.5;entryY=0;entryDx=0;entryDy=0;" edge="1" parent="oSs8_F6n8OspjOoBLgS3-457" source="oSs8_F6n8OspjOoBLgS3-462" target="oSs8_F6n8OspjOoBLgS3-465">
          <mxGeometry relative="1" as="geometry" />
        </mxCell>
        <mxCell id="oSs8_F6n8OspjOoBLgS3-459" style="edgeStyle=orthogonalEdgeStyle;rounded=0;orthogonalLoop=1;jettySize=auto;html=1;exitX=0.5;exitY=1;exitDx=0;exitDy=0;entryX=0.5;entryY=0;entryDx=0;entryDy=0;" edge="1" parent="oSs8_F6n8OspjOoBLgS3-457" source="oSs8_F6n8OspjOoBLgS3-462" target="oSs8_F6n8OspjOoBLgS3-464">
          <mxGeometry relative="1" as="geometry" />
        </mxCell>
        <mxCell id="oSs8_F6n8OspjOoBLgS3-460" style="edgeStyle=orthogonalEdgeStyle;rounded=0;orthogonalLoop=1;jettySize=auto;html=1;exitX=0.5;exitY=1;exitDx=0;exitDy=0;entryX=0.5;entryY=0;entryDx=0;entryDy=0;" edge="1" parent="oSs8_F6n8OspjOoBLgS3-457" source="oSs8_F6n8OspjOoBLgS3-462" target="oSs8_F6n8OspjOoBLgS3-463">
          <mxGeometry relative="1" as="geometry" />
        </mxCell>
        <mxCell id="oSs8_F6n8OspjOoBLgS3-461" style="edgeStyle=orthogonalEdgeStyle;rounded=0;orthogonalLoop=1;jettySize=auto;html=1;exitX=0.5;exitY=1;exitDx=0;exitDy=0;entryX=0.623;entryY=-0.033;entryDx=0;entryDy=0;entryPerimeter=0;" edge="1" parent="oSs8_F6n8OspjOoBLgS3-457" source="oSs8_F6n8OspjOoBLgS3-462" target="oSs8_F6n8OspjOoBLgS3-466">
          <mxGeometry relative="1" as="geometry" />
        </mxCell>
        <mxCell id="oSs8_F6n8OspjOoBLgS3-475" style="edgeStyle=orthogonalEdgeStyle;rounded=0;orthogonalLoop=1;jettySize=auto;html=1;exitX=0.5;exitY=1;exitDx=0;exitDy=0;entryX=0.5;entryY=0;entryDx=0;entryDy=0;" edge="1" parent="oSs8_F6n8OspjOoBLgS3-457" source="oSs8_F6n8OspjOoBLgS3-462" target="oSs8_F6n8OspjOoBLgS3-470">
          <mxGeometry relative="1" as="geometry" />
        </mxCell>
        <mxCell id="oSs8_F6n8OspjOoBLgS3-476" style="edgeStyle=orthogonalEdgeStyle;rounded=0;orthogonalLoop=1;jettySize=auto;html=1;exitX=0.5;exitY=1;exitDx=0;exitDy=0;entryX=0.5;entryY=0;entryDx=0;entryDy=0;" edge="1" parent="oSs8_F6n8OspjOoBLgS3-457" source="oSs8_F6n8OspjOoBLgS3-462" target="oSs8_F6n8OspjOoBLgS3-469">
          <mxGeometry relative="1" as="geometry" />
        </mxCell>
        <mxCell id="oSs8_F6n8OspjOoBLgS3-477" style="edgeStyle=orthogonalEdgeStyle;rounded=0;orthogonalLoop=1;jettySize=auto;html=1;exitX=0.5;exitY=1;exitDx=0;exitDy=0;entryX=0.5;entryY=0;entryDx=0;entryDy=0;" edge="1" parent="oSs8_F6n8OspjOoBLgS3-457" source="oSs8_F6n8OspjOoBLgS3-462" target="oSs8_F6n8OspjOoBLgS3-468">
          <mxGeometry relative="1" as="geometry" />
        </mxCell>
        <mxCell id="oSs8_F6n8OspjOoBLgS3-478" style="edgeStyle=orthogonalEdgeStyle;rounded=0;orthogonalLoop=1;jettySize=auto;html=1;exitX=0.5;exitY=1;exitDx=0;exitDy=0;entryX=0.5;entryY=0;entryDx=0;entryDy=0;" edge="1" parent="oSs8_F6n8OspjOoBLgS3-457" source="oSs8_F6n8OspjOoBLgS3-462" target="oSs8_F6n8OspjOoBLgS3-473">
          <mxGeometry relative="1" as="geometry" />
        </mxCell>
        <mxCell id="oSs8_F6n8OspjOoBLgS3-479" style="edgeStyle=orthogonalEdgeStyle;rounded=0;orthogonalLoop=1;jettySize=auto;html=1;exitX=0.5;exitY=1;exitDx=0;exitDy=0;entryX=0.5;entryY=0;entryDx=0;entryDy=0;" edge="1" parent="oSs8_F6n8OspjOoBLgS3-457" source="oSs8_F6n8OspjOoBLgS3-462" target="oSs8_F6n8OspjOoBLgS3-472">
          <mxGeometry relative="1" as="geometry" />
        </mxCell>
        <mxCell id="oSs8_F6n8OspjOoBLgS3-480" style="edgeStyle=orthogonalEdgeStyle;rounded=0;orthogonalLoop=1;jettySize=auto;html=1;exitX=0.5;exitY=1;exitDx=0;exitDy=0;entryX=0.5;entryY=0;entryDx=0;entryDy=0;" edge="1" parent="oSs8_F6n8OspjOoBLgS3-457" source="oSs8_F6n8OspjOoBLgS3-462" target="oSs8_F6n8OspjOoBLgS3-471">
          <mxGeometry relative="1" as="geometry" />
        </mxCell>
        <mxCell id="oSs8_F6n8OspjOoBLgS3-481" style="edgeStyle=orthogonalEdgeStyle;rounded=0;orthogonalLoop=1;jettySize=auto;html=1;exitX=0.5;exitY=1;exitDx=0;exitDy=0;entryX=0.5;entryY=0;entryDx=0;entryDy=0;" edge="1" parent="oSs8_F6n8OspjOoBLgS3-457" source="oSs8_F6n8OspjOoBLgS3-462" target="oSs8_F6n8OspjOoBLgS3-474">
          <mxGeometry relative="1" as="geometry" />
        </mxCell>
        <mxCell id="oSs8_F6n8OspjOoBLgS3-482" style="edgeStyle=orthogonalEdgeStyle;rounded=0;orthogonalLoop=1;jettySize=auto;html=1;exitX=0.5;exitY=1;exitDx=0;exitDy=0;entryX=0.5;entryY=0;entryDx=0;entryDy=0;" edge="1" parent="oSs8_F6n8OspjOoBLgS3-457" source="oSs8_F6n8OspjOoBLgS3-462" target="oSs8_F6n8OspjOoBLgS3-467">
          <mxGeometry relative="1" as="geometry" />
        </mxCell>
        <mxCell id="oSs8_F6n8OspjOoBLgS3-462" value="内存/IO操作功能" style="rounded=0;whiteSpace=wrap;html=1;" vertex="1" parent="oSs8_F6n8OspjOoBLgS3-457">
          <mxGeometry x="270" y="90" width="120" height="30" as="geometry" />
        </mxCell>
        <mxCell id="oSs8_F6n8OspjOoBLgS3-463" value="原子sub" style="rounded=0;whiteSpace=wrap;html=1;" vertex="1" parent="oSs8_F6n8OspjOoBLgS3-457">
          <mxGeometry x="90" y="200" width="30" height="100" as="geometry" />
        </mxCell>
        <mxCell id="oSs8_F6n8OspjOoBLgS3-464" value="原子inc" style="rounded=0;whiteSpace=wrap;html=1;" vertex="1" parent="oSs8_F6n8OspjOoBLgS3-457">
          <mxGeometry x="140" y="200" width="30" height="100" as="geometry" />
        </mxCell>
        <mxCell id="oSs8_F6n8OspjOoBLgS3-465" value="原子dec" style="rounded=0;whiteSpace=wrap;html=1;" vertex="1" parent="oSs8_F6n8OspjOoBLgS3-457">
          <mxGeometry x="190" y="200" width="30" height="100" as="geometry" />
        </mxCell>
        <mxCell id="oSs8_F6n8OspjOoBLgS3-466" value="原子and" style="rounded=0;whiteSpace=wrap;html=1;" vertex="1" parent="oSs8_F6n8OspjOoBLgS3-457">
          <mxGeometry x="240" y="200" width="30" height="100" as="geometry" />
        </mxCell>
        <mxCell id="oSs8_F6n8OspjOoBLgS3-467" value="原子add" style="rounded=0;whiteSpace=wrap;html=1;" vertex="1" parent="oSs8_F6n8OspjOoBLgS3-457">
          <mxGeometry x="40" y="200" width="30" height="100" as="geometry" />
        </mxCell>
        <mxCell id="oSs8_F6n8OspjOoBLgS3-468" value="原子xor" style="rounded=0;whiteSpace=wrap;html=1;" vertex="1" parent="oSs8_F6n8OspjOoBLgS3-457">
          <mxGeometry x="390" y="200" width="30" height="100" as="geometry" />
        </mxCell>
        <mxCell id="oSs8_F6n8OspjOoBLgS3-469" value="原子or" style="rounded=0;whiteSpace=wrap;html=1;" vertex="1" parent="oSs8_F6n8OspjOoBLgS3-457">
          <mxGeometry x="340" y="200" width="30" height="100" as="geometry" />
        </mxCell>
        <mxCell id="oSs8_F6n8OspjOoBLgS3-470" value="原子nand" style="rounded=0;whiteSpace=wrap;html=1;" vertex="1" parent="oSs8_F6n8OspjOoBLgS3-457">
          <mxGeometry x="290" y="200" width="30" height="100" as="geometry" />
        </mxCell>
        <mxCell id="oSs8_F6n8OspjOoBLgS3-471" value="原子swp" style="rounded=0;whiteSpace=wrap;html=1;" vertex="1" parent="oSs8_F6n8OspjOoBLgS3-457">
          <mxGeometry x="540" y="200" width="30" height="100" as="geometry" />
        </mxCell>
        <mxCell id="oSs8_F6n8OspjOoBLgS3-472" value="原子set" style="rounded=0;whiteSpace=wrap;html=1;" vertex="1" parent="oSs8_F6n8OspjOoBLgS3-457">
          <mxGeometry x="440" y="200" width="30" height="100" as="geometry" />
        </mxCell>
        <mxCell id="oSs8_F6n8OspjOoBLgS3-473" value="原子get" style="rounded=0;whiteSpace=wrap;html=1;" vertex="1" parent="oSs8_F6n8OspjOoBLgS3-457">
          <mxGeometry x="490" y="200" width="30" height="100" as="geometry" />
        </mxCell>
        <mxCell id="oSs8_F6n8OspjOoBLgS3-474" value="原子cas" style="rounded=0;whiteSpace=wrap;html=1;" vertex="1" parent="oSs8_F6n8OspjOoBLgS3-457">
          <mxGeometry x="590" y="200" width="30" height="100" as="geometry" />
        </mxCell>
        <mxCell id="oSs8_F6n8OspjOoBLgS3-483" value="原子操作软件结构图" style="" visible="0" parent="0" />
        <mxCell id="oSs8_F6n8OspjOoBLgS3-513" style="edgeStyle=orthogonalEdgeStyle;rounded=0;orthogonalLoop=1;jettySize=auto;html=1;exitX=1;exitY=0.5;exitDx=0;exitDy=0;entryX=0;entryY=0.5;entryDx=0;entryDy=0;" edge="1" parent="oSs8_F6n8OspjOoBLgS3-483" source="oSs8_F6n8OspjOoBLgS3-509" target="oSs8_F6n8OspjOoBLgS3-510">
          <mxGeometry relative="1" as="geometry" />
        </mxCell>
        <mxCell id="oSs8_F6n8OspjOoBLgS3-509" value="初始原子操作数" style="rounded=0;whiteSpace=wrap;html=1;" vertex="1" parent="oSs8_F6n8OspjOoBLgS3-483">
          <mxGeometry x="40" y="120" width="120" height="40" as="geometry" />
        </mxCell>
        <mxCell id="oSs8_F6n8OspjOoBLgS3-510" value="新原子操作数" style="rounded=0;whiteSpace=wrap;html=1;" vertex="1" parent="oSs8_F6n8OspjOoBLgS3-483">
          <mxGeometry x="440" y="120" width="120" height="40" as="geometry" />
        </mxCell>
        <mxCell id="oSs8_F6n8OspjOoBLgS3-511" value="&lt;font style=&quot;font-size: 15px;&quot;&gt;原子+、-、+1、-1等等操作&lt;/font&gt;" style="text;html=1;align=center;verticalAlign=middle;resizable=0;points=[];autosize=1;strokeColor=none;fillColor=none;" vertex="1" parent="oSs8_F6n8OspjOoBLgS3-483">
          <mxGeometry x="200" y="40" width="200" height="30" as="geometry" />
        </mxCell>
        <mxCell id="oSs8_F6n8OspjOoBLgS3-512" value="&lt;font style=&quot;font-size: 15px;&quot;&gt;原子&amp;amp;、&amp;amp;~、^等操作&lt;/font&gt;" style="text;html=1;align=center;verticalAlign=middle;resizable=0;points=[];autosize=1;strokeColor=none;fillColor=none;" vertex="1" parent="oSs8_F6n8OspjOoBLgS3-483">
          <mxGeometry x="220" y="210" width="160" height="30" as="geometry" />
        </mxCell>
        <mxCell id="oSs8_F6n8OspjOoBLgS3-516" value="" style="endArrow=classic;html=1;rounded=0;strokeWidth=3;fillColor=#cce5ff;strokeColor=#6795d0;" edge="1" parent="oSs8_F6n8OspjOoBLgS3-483">
          <mxGeometry width="50" height="50" relative="1" as="geometry">
            <mxPoint x="350" y="70" as="sourcePoint" />
            <mxPoint x="350" y="130" as="targetPoint" />
          </mxGeometry>
        </mxCell>
        <mxCell id="oSs8_F6n8OspjOoBLgS3-517" value="" style="endArrow=classic;html=1;rounded=0;strokeWidth=3;fillColor=#cce5ff;strokeColor=#6795d0;" edge="1" parent="oSs8_F6n8OspjOoBLgS3-483">
          <mxGeometry width="50" height="50" relative="1" as="geometry">
            <mxPoint x="230" y="70" as="sourcePoint" />
            <mxPoint x="230" y="130" as="targetPoint" />
          </mxGeometry>
        </mxCell>
        <mxCell id="oSs8_F6n8OspjOoBLgS3-518" value="" style="endArrow=classic;html=1;rounded=0;strokeWidth=3;fillColor=#cce5ff;strokeColor=#6795d0;" edge="1" parent="oSs8_F6n8OspjOoBLgS3-483">
          <mxGeometry width="50" height="50" relative="1" as="geometry">
            <mxPoint x="290" y="70" as="sourcePoint" />
            <mxPoint x="290" y="130" as="targetPoint" />
          </mxGeometry>
        </mxCell>
        <mxCell id="oSs8_F6n8OspjOoBLgS3-519" value="" style="endArrow=classic;html=1;rounded=0;strokeWidth=3;fillColor=#cce5ff;strokeColor=#6795d0;" edge="1" parent="oSs8_F6n8OspjOoBLgS3-483">
          <mxGeometry width="50" height="50" relative="1" as="geometry">
            <mxPoint x="350" y="210" as="sourcePoint" />
            <mxPoint x="350" y="150" as="targetPoint" />
          </mxGeometry>
        </mxCell>
        <mxCell id="oSs8_F6n8OspjOoBLgS3-520" value="" style="endArrow=classic;html=1;rounded=0;strokeWidth=3;fillColor=#cce5ff;strokeColor=#6795d0;" edge="1" parent="oSs8_F6n8OspjOoBLgS3-483">
          <mxGeometry width="50" height="50" relative="1" as="geometry">
            <mxPoint x="230" y="210" as="sourcePoint" />
            <mxPoint x="230" y="150" as="targetPoint" />
          </mxGeometry>
        </mxCell>
        <mxCell id="oSs8_F6n8OspjOoBLgS3-521" value="" style="endArrow=classic;html=1;rounded=0;strokeWidth=3;fillColor=#cce5ff;strokeColor=#6795d0;" edge="1" parent="oSs8_F6n8OspjOoBLgS3-483">
          <mxGeometry width="50" height="50" relative="1" as="geometry">
            <mxPoint x="290" y="210" as="sourcePoint" />
            <mxPoint x="290" y="150" as="targetPoint" />
          </mxGeometry>
        </mxCell>
        <mxCell id="oSs8_F6n8OspjOoBLgS3-522" value="容器隔离" visible="0" parent="0" />
        <mxCell id="oSs8_F6n8OspjOoBLgS3-544" value="容器1" style="rounded=1;whiteSpace=wrap;html=1;fillColor=#f5f5f5;fontColor=#333333;strokeColor=#666666;" vertex="1" parent="oSs8_F6n8OspjOoBLgS3-522">
          <mxGeometry x="120" y="160" width="80" height="40" as="geometry" />
        </mxCell>
        <mxCell id="oSs8_F6n8OspjOoBLgS3-545" style="rounded=0;orthogonalLoop=1;jettySize=auto;html=1;exitX=0;exitY=1;exitDx=0;exitDy=0;entryX=0;entryY=0;entryDx=0;entryDy=0;" edge="1" parent="oSs8_F6n8OspjOoBLgS3-522" source="oSs8_F6n8OspjOoBLgS3-547" target="oSs8_F6n8OspjOoBLgS3-548">
          <mxGeometry relative="1" as="geometry" />
        </mxCell>
        <mxCell id="oSs8_F6n8OspjOoBLgS3-546" style="rounded=0;orthogonalLoop=1;jettySize=auto;html=1;exitX=1;exitY=1;exitDx=0;exitDy=0;entryX=1;entryY=0;entryDx=0;entryDy=0;" edge="1" parent="oSs8_F6n8OspjOoBLgS3-522" source="oSs8_F6n8OspjOoBLgS3-547" target="oSs8_F6n8OspjOoBLgS3-548">
          <mxGeometry relative="1" as="geometry" />
        </mxCell>
        <mxCell id="oSs8_F6n8OspjOoBLgS3-547" value="页表1" style="rounded=0;whiteSpace=wrap;html=1;fillColor=#f5f5f5;fontColor=#333333;strokeColor=#666666;" vertex="1" parent="oSs8_F6n8OspjOoBLgS3-522">
          <mxGeometry x="120" y="220" width="80" height="140" as="geometry" />
        </mxCell>
        <mxCell id="oSs8_F6n8OspjOoBLgS3-548" value="TTBR（页表基址寄存器）" style="rounded=0;whiteSpace=wrap;html=1;fillColor=#f5f5f5;fontColor=#333333;strokeColor=#666666;" vertex="1" parent="oSs8_F6n8OspjOoBLgS3-522">
          <mxGeometry x="240" y="440" width="160" height="40" as="geometry" />
        </mxCell>
        <mxCell id="oSs8_F6n8OspjOoBLgS3-549" value="容器2" style="rounded=1;whiteSpace=wrap;html=1;fillColor=#dae8fc;strokeColor=#6c8ebf;" vertex="1" parent="oSs8_F6n8OspjOoBLgS3-522">
          <mxGeometry x="280" y="160" width="80" height="40" as="geometry" />
        </mxCell>
        <mxCell id="oSs8_F6n8OspjOoBLgS3-550" value="页表2" style="rounded=0;whiteSpace=wrap;html=1;fillColor=#dae8fc;strokeColor=#6c8ebf;" vertex="1" parent="oSs8_F6n8OspjOoBLgS3-522">
          <mxGeometry x="280" y="220" width="80" height="140" as="geometry" />
        </mxCell>
        <mxCell id="oSs8_F6n8OspjOoBLgS3-551" value="容器3" style="rounded=1;whiteSpace=wrap;html=1;" vertex="1" parent="oSs8_F6n8OspjOoBLgS3-522">
          <mxGeometry x="440" y="160" width="80" height="40" as="geometry" />
        </mxCell>
        <mxCell id="oSs8_F6n8OspjOoBLgS3-552" style="rounded=0;orthogonalLoop=1;jettySize=auto;html=1;exitX=1;exitY=1;exitDx=0;exitDy=0;entryX=1;entryY=0;entryDx=0;entryDy=0;" edge="1" parent="oSs8_F6n8OspjOoBLgS3-522" source="oSs8_F6n8OspjOoBLgS3-554" target="oSs8_F6n8OspjOoBLgS3-548">
          <mxGeometry relative="1" as="geometry">
            <mxPoint x="400" y="440" as="targetPoint" />
          </mxGeometry>
        </mxCell>
        <mxCell id="oSs8_F6n8OspjOoBLgS3-553" style="rounded=0;orthogonalLoop=1;jettySize=auto;html=1;exitX=0;exitY=1;exitDx=0;exitDy=0;entryX=0;entryY=0;entryDx=0;entryDy=0;" edge="1" parent="oSs8_F6n8OspjOoBLgS3-522" source="oSs8_F6n8OspjOoBLgS3-554" target="oSs8_F6n8OspjOoBLgS3-548">
          <mxGeometry relative="1" as="geometry" />
        </mxCell>
        <mxCell id="oSs8_F6n8OspjOoBLgS3-554" value="页表3" style="rounded=0;whiteSpace=wrap;html=1;" vertex="1" parent="oSs8_F6n8OspjOoBLgS3-522">
          <mxGeometry x="440" y="220" width="80" height="140" as="geometry" />
        </mxCell>
        <mxCell id="oSs8_F6n8OspjOoBLgS3-555" style="rounded=0;orthogonalLoop=1;jettySize=auto;html=1;exitX=1;exitY=1;exitDx=0;exitDy=0;entryX=1;entryY=0;entryDx=0;entryDy=0;" edge="1" parent="oSs8_F6n8OspjOoBLgS3-522">
          <mxGeometry relative="1" as="geometry">
            <mxPoint x="360" y="360" as="sourcePoint" />
            <mxPoint x="400" y="440" as="targetPoint" />
          </mxGeometry>
        </mxCell>
        <mxCell id="oSs8_F6n8OspjOoBLgS3-556" style="rounded=0;orthogonalLoop=1;jettySize=auto;html=1;exitX=0;exitY=1;exitDx=0;exitDy=0;entryX=0;entryY=0;entryDx=0;entryDy=0;" edge="1" parent="oSs8_F6n8OspjOoBLgS3-522">
          <mxGeometry relative="1" as="geometry">
            <mxPoint x="280" y="360" as="sourcePoint" />
            <mxPoint x="240" y="440" as="targetPoint" />
          </mxGeometry>
        </mxCell>
        <mxCell id="oSs8_F6n8OspjOoBLgS3-557" value="内存巡检架构图" parent="0" />
        <mxCell id="oSs8_F6n8OspjOoBLgS3-577" style="edgeStyle=orthogonalEdgeStyle;rounded=0;orthogonalLoop=1;jettySize=auto;html=1;exitX=1;exitY=0.5;exitDx=0;exitDy=0;entryX=0;entryY=0.5;entryDx=0;entryDy=0;" edge="1" parent="oSs8_F6n8OspjOoBLgS3-557" source="oSs8_F6n8OspjOoBLgS3-578" target="oSs8_F6n8OspjOoBLgS3-581">
          <mxGeometry relative="1" as="geometry" />
        </mxCell>
        <mxCell id="oSs8_F6n8OspjOoBLgS3-578" value="上锁操作" style="rounded=0;whiteSpace=wrap;html=1;" vertex="1" parent="oSs8_F6n8OspjOoBLgS3-557">
          <mxGeometry x="50" y="130" width="120" height="40" as="geometry" />
        </mxCell>
        <mxCell id="oSs8_F6n8OspjOoBLgS3-579" value="&lt;font style=&quot;font-size: 23px;&quot;&gt;循环操作&lt;/font&gt;" style="rounded=1;whiteSpace=wrap;html=1;arcSize=46;" vertex="1" parent="oSs8_F6n8OspjOoBLgS3-557">
          <mxGeometry x="50" y="190" width="120" height="350" as="geometry" />
        </mxCell>
        <mxCell id="oSs8_F6n8OspjOoBLgS3-580" style="edgeStyle=orthogonalEdgeStyle;rounded=0;orthogonalLoop=1;jettySize=auto;html=1;exitX=0.5;exitY=1;exitDx=0;exitDy=0;entryX=0.5;entryY=0;entryDx=0;entryDy=0;" edge="1" parent="oSs8_F6n8OspjOoBLgS3-557" source="oSs8_F6n8OspjOoBLgS3-581" target="oSs8_F6n8OspjOoBLgS3-583">
          <mxGeometry relative="1" as="geometry" />
        </mxCell>
        <mxCell id="oSs8_F6n8OspjOoBLgS3-581" value="获取巡检地址address、&lt;br&gt;巡检地址长度" style="rounded=0;whiteSpace=wrap;html=1;" vertex="1" parent="oSs8_F6n8OspjOoBLgS3-557">
          <mxGeometry x="210" y="210" width="150" height="80" as="geometry" />
        </mxCell>
        <mxCell id="oSs8_F6n8OspjOoBLgS3-582" style="edgeStyle=orthogonalEdgeStyle;rounded=0;orthogonalLoop=1;jettySize=auto;html=1;exitX=0.5;exitY=1;exitDx=0;exitDy=0;entryX=0.5;entryY=0;entryDx=0;entryDy=0;" edge="1" parent="oSs8_F6n8OspjOoBLgS3-557" source="oSs8_F6n8OspjOoBLgS3-583" target="oSs8_F6n8OspjOoBLgS3-585">
          <mxGeometry relative="1" as="geometry" />
        </mxCell>
        <mxCell id="oSs8_F6n8OspjOoBLgS3-583" value="巡检码&lt;br&gt;MP_ulPatrolCode[index]" style="rounded=0;whiteSpace=wrap;html=1;" vertex="1" parent="oSs8_F6n8OspjOoBLgS3-557">
          <mxGeometry x="210" y="330" width="150" height="40" as="geometry" />
        </mxCell>
        <mxCell id="oSs8_F6n8OspjOoBLgS3-584" style="edgeStyle=orthogonalEdgeStyle;rounded=0;orthogonalLoop=1;jettySize=auto;html=1;exitX=0.5;exitY=1;exitDx=0;exitDy=0;entryX=0.5;entryY=0;entryDx=0;entryDy=0;" edge="1" parent="oSs8_F6n8OspjOoBLgS3-557" source="oSs8_F6n8OspjOoBLgS3-585" target="oSs8_F6n8OspjOoBLgS3-588">
          <mxGeometry relative="1" as="geometry" />
        </mxCell>
        <mxCell id="oSs8_F6n8OspjOoBLgS3-585" value="读写内存巡检" style="rounded=0;whiteSpace=wrap;html=1;" vertex="1" parent="oSs8_F6n8OspjOoBLgS3-557">
          <mxGeometry x="210" y="410" width="150" height="40" as="geometry" />
        </mxCell>
        <mxCell id="oSs8_F6n8OspjOoBLgS3-586" value="解锁操作" style="rounded=0;whiteSpace=wrap;html=1;" vertex="1" parent="oSs8_F6n8OspjOoBLgS3-557">
          <mxGeometry x="50" y="570" width="120" height="40" as="geometry" />
        </mxCell>
        <mxCell id="oSs8_F6n8OspjOoBLgS3-587" style="edgeStyle=orthogonalEdgeStyle;rounded=0;orthogonalLoop=1;jettySize=auto;html=1;exitX=0;exitY=0.5;exitDx=0;exitDy=0;entryX=1;entryY=0.5;entryDx=0;entryDy=0;" edge="1" parent="oSs8_F6n8OspjOoBLgS3-557" source="oSs8_F6n8OspjOoBLgS3-588" target="oSs8_F6n8OspjOoBLgS3-586">
          <mxGeometry relative="1" as="geometry" />
        </mxCell>
        <mxCell id="oSs8_F6n8OspjOoBLgS3-588" value="address=address+length；&lt;br&gt;index++" style="rounded=0;whiteSpace=wrap;html=1;" vertex="1" parent="oSs8_F6n8OspjOoBLgS3-557">
          <mxGeometry x="210" y="490" width="150" height="40" as="geometry" />
        </mxCell>
      </root>
    </mxGraphModel>
  </diagram>
</mxfile>
